<?xml version="1.0" encoding="UTF-8" standalone="no"?><svg xmlns="http://www.w3.org/2000/svg" xmlns:xlink="http://www.w3.org/1999/xlink" contentScriptType="application/ecmascript" contentStyleType="text/css" height="343.875px" preserveAspectRatio="none" style="width:315px;height:343px;" version="1.1" viewBox="0 0 315 343" width="315.375px" zoomAndPan="magnify"><defs><filter height="300%" id="f1uhd7pcakrt2e" width="300%" x="-1" y="-1"><feGaussianBlur result="blurOut" stdDeviation="0.75"/><feColorMatrix in="blurOut" result="blurOut2" type="matrix" values="0 0 0 0 0 0 0 0 0 0 0 0 0 0 0 0 0 0 .4 0"/><feOffset dx="1.5" dy="1.5" in="blurOut2" result="blurOut3"/><feBlend in="SourceGraphic" in2="blurOut3" mode="normal"/></filter></defs><g><text fill="#000000" font-family="sans-serif" font-size="6.75" lengthAdjust="spacingAndGlyphs" text-decoration="underline" textLength="127.5" x="91.6875" y="7.0071">SERVER SERVERLOGIC's Class Diagram</text><text fill="#000000" font-family="sans-serif" font-size="6.75" lengthAdjust="spacingAndGlyphs" textLength="0" x="156.375" y="15.4973"/><!--cluster it.polimi.ingsw.server.serverlogic--><polygon fill="#FFFFFF" filter="url(#f1uhd7pcakrt2e)" points="8.25,75.8555,99,75.8555,101.625,84.709,298.125,84.709,298.125,311.3555,8.25,311.3555,8.25,75.8555" style="stroke: #000000; stroke-width: 0.5625;"/><line style="stroke: #000000; stroke-width: 0.5625;" x1="8.25" x2="101.625" y1="84.709" y2="84.709"/><text fill="#000000" font-family="sans-serif" font-size="5.25" font-weight="bold" lengthAdjust="spacingAndGlyphs" textLength="88.5" x="9.75" y="82.0554">it.polimi.ingsw.server.serverlogic</text><!--cluster java.lang--><polygon fill="#FFFFFF" filter="url(#f1uhd7pcakrt2e)" points="159.75,25.9805,185.625,25.9805,188.25,34.834,204,34.834,204,63.4805,159.75,63.4805,159.75,25.9805" style="stroke: #000000; stroke-width: 0.5625;"/><line style="stroke: #000000; stroke-width: 0.5625;" x1="159.75" x2="188.25" y1="34.834" y2="34.834"/><text fill="#000000" font-family="sans-serif" font-size="5.25" font-weight="bold" lengthAdjust="spacingAndGlyphs" textLength="23.625" x="161.25" y="32.1804">java.lang</text><!--class it.polimi.ingsw.server.serverlogic.Nicknames--><rect fill="#FEFECE" filter="url(#f1uhd7pcakrt2e)" height="64.6963" id="it.polimi.ingsw.server.serverlogic.Nicknames" style="stroke: #A80036; stroke-width: 0.5625;" width="58.125" x="233.8125" y="240.4805"/><ellipse cx="249.5625" cy="246.4805" fill="#ADD1B2" rx="4.125" ry="4.125" style="stroke: #A80036; stroke-width: 0.375;"/><path d="M250.3125,245.168 Q250.3887,244.9805 250.4766,244.8867 Q250.5645,244.793 250.6641,244.793 Q250.8398,244.793 250.9512,244.8984 Q251.0625,245.0039 251.0625,245.25 L251.0625,245.8359 Q251.0625,246.082 250.957,246.1875 Q250.8516,246.293 250.6875,246.293 Q250.541,246.293 250.4473,246.2285 Q250.3535,246.1641 250.3125,245.9941 Q250.2949,245.877 250.2305,245.8125 Q250.1133,245.6895 249.9023,245.6162 Q249.6914,245.543 249.4805,245.543 Q249.2168,245.543 248.9971,245.6484 Q248.7773,245.7539 248.6074,245.9883 Q248.4375,246.2227 248.4375,246.5449 L248.4375,246.8906 Q248.4375,247.2773 248.7539,247.5352 Q249.0703,247.793 249.6328,247.793 Q249.9668,247.793 250.2012,247.7168 Q250.3359,247.6758 250.4883,247.541 Q250.5879,247.4648 250.6406,247.4414 Q250.6934,247.418 250.7578,247.418 Q250.8809,247.418 250.9717,247.5146 Q251.0625,247.6113 251.0625,247.7461 Q251.0625,247.875 250.9336,248.0273 Q250.7461,248.25 250.4473,248.373 Q250.0547,248.543 249.5742,248.543 Q249.0117,248.543 248.5605,248.3203 Q248.1973,248.1445 247.9424,247.7637 Q247.6875,247.3828 247.6875,246.9316 L247.6875,246.5215 Q247.6875,246.0527 247.9131,245.6426 Q248.1387,245.2324 248.5342,245.0127 Q248.9297,244.793 249.375,244.793 Q249.6445,244.793 249.8789,244.8867 Q250.1133,244.9805 250.3125,245.168 Z "/><text fill="#000000" font-family="sans-serif" font-size="4.5" lengthAdjust="spacingAndGlyphs" textLength="23.625" x="257.0625" y="248.3218">Nicknames</text><line style="stroke: #A80036; stroke-width: 0.5625;" x1="234.1875" x2="291.5625" y1="252.4805" y2="252.4805"/><rect fill="none" height="2.25" style="stroke: #C82930; stroke-width: 0.375;" width="2.25" x="236.8125" y="256.0122"/><text fill="#000000" font-family="sans-serif" font-size="4.125" lengthAdjust="spacingAndGlyphs" text-decoration="underline" textLength="38.25" x="241.3125" y="258.2626">instance : Nicknames</text><rect fill="none" height="2.25" style="stroke: #C82930; stroke-width: 0.375;" width="2.25" x="236.8125" y="261.2007"/><text fill="#000000" font-family="sans-serif" font-size="4.125" lengthAdjust="spacingAndGlyphs" textLength="48.375" x="241.3125" y="263.451">offlineNames : List&lt;String&gt;</text><rect fill="none" height="2.25" style="stroke: #C82930; stroke-width: 0.375;" width="2.25" x="236.8125" y="266.3892"/><text fill="#000000" font-family="sans-serif" font-size="4.125" lengthAdjust="spacingAndGlyphs" textLength="47.625" x="241.3125" y="268.6395">onlineNames : List&lt;String&gt;</text><line style="stroke: #A80036; stroke-width: 0.5625;" x1="234.1875" x2="291.5625" y1="271.0459" y2="271.0459"/><ellipse cx="237.9375" cy="275.7026" fill="#84BE84" rx="1.125" ry="1.125" style="stroke: #038048; stroke-width: 0.375;"/><text fill="#000000" font-family="sans-serif" font-size="4.125" lengthAdjust="spacingAndGlyphs" textLength="27" x="241.3125" y="276.828">addNickname()</text><ellipse cx="237.9375" cy="280.8911" fill="#84BE84" rx="1.125" ry="1.125" style="stroke: #038048; stroke-width: 0.375;"/><text fill="#000000" font-family="sans-serif" font-size="4.125" lengthAdjust="spacingAndGlyphs" text-decoration="underline" textLength="24" x="241.3125" y="282.0165">getInstance()</text><ellipse cx="237.9375" cy="286.0796" fill="#84BE84" rx="1.125" ry="1.125" style="stroke: #038048; stroke-width: 0.375;"/><text fill="#000000" font-family="sans-serif" font-size="4.125" lengthAdjust="spacingAndGlyphs" textLength="35.25" x="241.3125" y="287.205">playerResumption()</text><ellipse cx="237.9375" cy="291.2681" fill="#84BE84" rx="1.125" ry="1.125" style="stroke: #038048; stroke-width: 0.375;"/><text fill="#000000" font-family="sans-serif" font-size="4.125" lengthAdjust="spacingAndGlyphs" textLength="35.625" x="241.3125" y="292.3934">playerSuspension()</text><ellipse cx="237.9375" cy="296.4565" fill="#84BE84" rx="1.125" ry="1.125" style="stroke: #038048; stroke-width: 0.375;"/><text fill="#000000" font-family="sans-serif" font-size="4.125" lengthAdjust="spacingAndGlyphs" textLength="27" x="241.3125" y="297.5819">playerUpdate()</text><rect fill="#F24D5C" height="2.25" style="stroke: #C82930; stroke-width: 0.375;" width="2.25" x="236.8125" y="300.52"/><text fill="#000000" font-family="sans-serif" font-size="4.125" lengthAdjust="spacingAndGlyphs" textLength="22.5" x="241.3125" y="302.7704">Nicknames()</text><!--class it.polimi.ingsw.server.serverlogic.ServerHall--><rect fill="#FEFECE" filter="url(#f1uhd7pcakrt2e)" height="121.7695" id="it.polimi.ingsw.server.serverlogic.ServerHall" style="stroke: #A80036; stroke-width: 0.5625;" width="88.125" x="137.8125" y="89.3555"/><ellipse cx="169.5938" cy="95.3555" fill="#ADD1B2" rx="4.125" ry="4.125" style="stroke: #A80036; stroke-width: 0.375;"/><path d="M170.3438,94.043 Q170.4199,93.8555 170.5078,93.7617 Q170.5957,93.668 170.6953,93.668 Q170.8711,93.668 170.9824,93.7734 Q171.0938,93.8789 171.0938,94.125 L171.0938,94.7109 Q171.0938,94.957 170.9883,95.0625 Q170.8828,95.168 170.7188,95.168 Q170.5723,95.168 170.4785,95.1035 Q170.3848,95.0391 170.3438,94.8691 Q170.3262,94.752 170.2617,94.6875 Q170.1445,94.5645 169.9336,94.4912 Q169.7227,94.418 169.5117,94.418 Q169.248,94.418 169.0283,94.5234 Q168.8086,94.6289 168.6387,94.8633 Q168.4688,95.0977 168.4688,95.4199 L168.4688,95.7656 Q168.4688,96.1523 168.7852,96.4102 Q169.1016,96.668 169.6641,96.668 Q169.998,96.668 170.2324,96.5918 Q170.3672,96.5508 170.5195,96.416 Q170.6191,96.3398 170.6719,96.3164 Q170.7246,96.293 170.7891,96.293 Q170.9121,96.293 171.0029,96.3896 Q171.0938,96.4863 171.0938,96.6211 Q171.0938,96.75 170.9648,96.9023 Q170.7773,97.125 170.4785,97.248 Q170.0859,97.418 169.6055,97.418 Q169.043,97.418 168.5918,97.1953 Q168.2285,97.0195 167.9736,96.6387 Q167.7188,96.2578 167.7188,95.8066 L167.7188,95.3965 Q167.7188,94.9277 167.9443,94.5176 Q168.1699,94.1074 168.5654,93.8877 Q168.9609,93.668 169.4063,93.668 Q169.6758,93.668 169.9102,93.7617 Q170.1445,93.8555 170.3438,94.043 Z "/><text fill="#000000" font-family="sans-serif" font-size="4.5" lengthAdjust="spacingAndGlyphs" textLength="21.375" x="177.2813" y="97.1968">ServerHall</text><line style="stroke: #A80036; stroke-width: 0.5625;" x1="138.1875" x2="225.5625" y1="101.3555" y2="101.3555"/><rect fill="none" height="2.25" style="stroke: #C82930; stroke-width: 0.375;" width="2.25" x="140.8125" y="104.8872"/><text fill="#000000" font-family="sans-serif" font-size="4.125" lengthAdjust="spacingAndGlyphs" text-decoration="underline" textLength="45.75" x="145.3125" y="107.1376">MAXIMUM_PLAYERS : int</text><rect fill="none" height="2.25" style="stroke: #C82930; stroke-width: 0.375;" width="2.25" x="140.8125" y="110.0757"/><text fill="#000000" font-family="sans-serif" font-size="4.125" lengthAdjust="spacingAndGlyphs" text-decoration="underline" textLength="43.5" x="145.3125" y="112.326">MINIMUM_PLAYERS : int</text><rect fill="none" height="2.25" style="stroke: #C82930; stroke-width: 0.375;" width="2.25" x="140.8125" y="115.2642"/><text fill="#000000" font-family="sans-serif" font-size="4.125" lengthAdjust="spacingAndGlyphs" textLength="52.875" x="145.3125" y="117.5145">connectedUsers : List&lt;User&gt;</text><rect fill="none" height="2.25" style="stroke: #C82930; stroke-width: 0.375;" width="2.25" x="140.8125" y="120.4526"/><text fill="#000000" font-family="sans-serif" font-size="4.125" lengthAdjust="spacingAndGlyphs" textLength="31.125" x="145.3125" y="122.703">running : boolean</text><rect fill="none" height="2.25" style="stroke: #C82930; stroke-width: 0.375;" width="2.25" x="140.8125" y="125.6411"/><text fill="#000000" font-family="sans-serif" font-size="4.125" lengthAdjust="spacingAndGlyphs" textLength="46.5" x="145.3125" y="127.8915">secondsWaitingRoom : int</text><rect fill="none" height="2.25" style="stroke: #C82930; stroke-width: 0.375;" width="2.25" x="140.8125" y="130.8296"/><text fill="#000000" font-family="sans-serif" font-size="4.125" lengthAdjust="spacingAndGlyphs" textLength="78.375" x="145.3125" y="133.08">startedGames : List&lt;DeathmatchController&gt;</text><rect fill="none" height="2.25" style="stroke: #C82930; stroke-width: 0.375;" width="2.25" x="140.8125" y="136.0181"/><text fill="#000000" font-family="sans-serif" font-size="4.125" lengthAdjust="spacingAndGlyphs" textLength="23.625" x="145.3125" y="138.2684">timer : Future</text><line style="stroke: #A80036; stroke-width: 0.5625;" x1="138.1875" x2="225.5625" y1="140.6748" y2="140.6748"/><ellipse cx="141.9375" cy="145.3315" fill="#84BE84" rx="1.125" ry="1.125" style="stroke: #038048; stroke-width: 0.375;"/><text fill="#000000" font-family="sans-serif" font-size="4.125" lengthAdjust="spacingAndGlyphs" textLength="18.375" x="145.3125" y="146.4569">addUser()</text><ellipse cx="141.9375" cy="150.52" fill="#84BE84" rx="1.125" ry="1.125" style="stroke: #038048; stroke-width: 0.375;"/><text fill="#000000" font-family="sans-serif" font-size="4.125" lengthAdjust="spacingAndGlyphs" textLength="60.75" x="145.3125" y="151.6454">notifyMatchesPlayerResumption()</text><ellipse cx="141.9375" cy="155.7085" fill="#84BE84" rx="1.125" ry="1.125" style="stroke: #038048; stroke-width: 0.375;"/><text fill="#000000" font-family="sans-serif" font-size="4.125" lengthAdjust="spacingAndGlyphs" textLength="27.375" x="145.3125" y="156.8339">removeMatch()</text><ellipse cx="141.9375" cy="160.897" fill="#84BE84" rx="1.125" ry="1.125" style="stroke: #038048; stroke-width: 0.375;"/><text fill="#000000" font-family="sans-serif" font-size="4.125" lengthAdjust="spacingAndGlyphs" textLength="9" x="145.3125" y="162.0223">run()</text><polygon fill="#4177AF" points="141.9375,164.5854,140.4375,166.8354,143.4375,166.8354" style="stroke: #1963A0; stroke-width: 0.375;"/><text fill="#000000" font-family="sans-serif" font-size="4.125" lengthAdjust="spacingAndGlyphs" textLength="21.75" x="145.3125" y="167.2108">ServerHall()</text><rect fill="#F24D5C" height="2.25" style="stroke: #C82930; stroke-width: 0.375;" width="2.25" x="140.8125" y="170.1489"/><text fill="#000000" font-family="sans-serif" font-size="4.125" lengthAdjust="spacingAndGlyphs" textLength="32.625" x="145.3125" y="172.3993">getConfiguration()</text><rect fill="#F24D5C" height="2.25" style="stroke: #C82930; stroke-width: 0.375;" width="2.25" x="140.8125" y="175.3374"/><text fill="#000000" font-family="sans-serif" font-size="4.125" lengthAdjust="spacingAndGlyphs" textLength="17.625" x="145.3125" y="177.5878">notifyAll()</text><rect fill="#F24D5C" height="2.25" style="stroke: #C82930; stroke-width: 0.375;" width="2.25" x="140.8125" y="180.5259"/><text fill="#000000" font-family="sans-serif" font-size="4.125" lengthAdjust="spacingAndGlyphs" textLength="22.125" x="145.3125" y="182.7762">startMatch()</text><rect fill="#F24D5C" height="2.25" style="stroke: #C82930; stroke-width: 0.375;" width="2.25" x="140.8125" y="185.7144"/><text fill="#000000" font-family="sans-serif" font-size="4.125" lengthAdjust="spacingAndGlyphs" textLength="21" x="145.3125" y="187.9647">startTimer()</text><rect fill="#F24D5C" height="2.25" style="stroke: #C82930; stroke-width: 0.375;" width="2.25" x="140.8125" y="190.9028"/><text fill="#000000" font-family="sans-serif" font-size="4.125" lengthAdjust="spacingAndGlyphs" textLength="20.625" x="145.3125" y="193.1532">stopTimer()</text><rect fill="#F24D5C" height="2.25" style="stroke: #C82930; stroke-width: 0.375;" width="2.25" x="140.8125" y="196.0913"/><text fill="#000000" font-family="sans-serif" font-size="4.125" lengthAdjust="spacingAndGlyphs" textLength="16.5" x="145.3125" y="198.3417">timeOut()</text><rect fill="#F24D5C" height="2.25" style="stroke: #C82930; stroke-width: 0.375;" width="2.25" x="140.8125" y="201.2798"/><text fill="#000000" font-family="sans-serif" font-size="4.125" lengthAdjust="spacingAndGlyphs" textLength="19.875" x="145.3125" y="203.5302">updateAll()</text><rect fill="#F24D5C" height="2.25" style="stroke: #C82930; stroke-width: 0.375;" width="2.25" x="140.8125" y="206.4683"/><text fill="#000000" font-family="sans-serif" font-size="4.125" lengthAdjust="spacingAndGlyphs" textLength="19.875" x="145.3125" y="208.7186">updateAll()</text><!--class it.polimi.ingsw.server.serverlogic.GameStatus--><rect fill="#FEFECE" filter="url(#f1uhd7pcakrt2e)" height="33.5654" id="it.polimi.ingsw.server.serverlogic.GameStatus" style="stroke: #A80036; stroke-width: 0.5625;" width="37.875" x="86.8125" y="133.418"/><ellipse cx="92.4375" cy="139.418" fill="#EB937F" rx="4.125" ry="4.125" style="stroke: #A80036; stroke-width: 0.375;"/><path d="M91.875,139.793 L91.875,140.543 L93.375,140.543 L93.375,140.168 L93.375,139.9863 L93.6094,139.793 L93.75,139.793 L93.8906,139.793 L94.125,139.9863 L94.125,140.168 L94.125,141.293 L91.125,141.293 L90.9434,141.293 L90.75,141.0586 L90.75,140.918 L90.75,140.7773 L90.9434,140.543 L91.125,140.543 L91.125,140.543 L91.125,138.293 L91.125,138.293 L90.9434,138.293 L90.75,138.0586 L90.75,137.918 L90.75,137.7773 L90.9434,137.543 L91.125,137.543 L94.125,137.543 L94.125,138.668 L94.125,138.8496 L93.8906,139.043 L93.75,139.043 L93.6094,139.043 L93.375,138.8496 L93.375,138.668 L93.375,138.293 L91.875,138.293 L91.875,139.043 L92.25,139.043 L92.25,138.8613 L92.25,138.8613 L92.4844,138.668 L92.625,138.668 L92.7656,138.668 L93,138.8613 L93,139.043 L93,139.793 L93,139.9746 L92.7656,140.168 L92.7656,140.168 L92.625,140.168 L92.4844,140.168 L92.25,139.9746 L92.25,139.9746 L92.25,139.793 L91.875,139.793 Z "/><text fill="#000000" font-family="sans-serif" font-size="4.5" lengthAdjust="spacingAndGlyphs" textLength="25.875" x="97.6875" y="141.2593">GameStatus</text><line style="stroke: #A80036; stroke-width: 0.5625;" x1="87.1875" x2="124.3125" y1="145.418" y2="145.418"/><text fill="#000000" font-family="sans-serif" font-size="4.125" lengthAdjust="spacingAndGlyphs" textLength="27.75" x="89.0625" y="151.2001">NOT_STARTED</text><text fill="#000000" font-family="sans-serif" font-size="4.125" lengthAdjust="spacingAndGlyphs" textLength="30.75" x="89.0625" y="156.3885">TIMER_STARTED</text><text fill="#000000" font-family="sans-serif" font-size="4.125" lengthAdjust="spacingAndGlyphs" textLength="16.125" x="89.0625" y="161.577">WAITING</text><line style="stroke: #A80036; stroke-width: 0.5625;" x1="87.1875" x2="124.3125" y1="163.9834" y2="163.9834"/><!--class it.polimi.ingsw.server.serverlogic.ServerMain--><rect fill="#FEFECE" filter="url(#f1uhd7pcakrt2e)" height="54.3193" id="it.polimi.ingsw.server.serverlogic.ServerMain" style="stroke: #A80036; stroke-width: 0.5625;" width="59.25" x="14.25" y="123.1055"/><ellipse cx="30.8438" cy="129.1055" fill="#ADD1B2" rx="4.125" ry="4.125" style="stroke: #A80036; stroke-width: 0.375;"/><path d="M31.5938,127.793 Q31.6699,127.6055 31.7578,127.5117 Q31.8457,127.418 31.9453,127.418 Q32.1211,127.418 32.2324,127.5234 Q32.3438,127.6289 32.3438,127.875 L32.3438,128.4609 Q32.3438,128.707 32.2383,128.8125 Q32.1328,128.918 31.9688,128.918 Q31.8223,128.918 31.7285,128.8535 Q31.6348,128.7891 31.5938,128.6191 Q31.5762,128.502 31.5117,128.4375 Q31.3945,128.3145 31.1836,128.2412 Q30.9727,128.168 30.7617,128.168 Q30.498,128.168 30.2783,128.2734 Q30.0586,128.3789 29.8887,128.6133 Q29.7188,128.8477 29.7188,129.1699 L29.7188,129.5156 Q29.7188,129.9023 30.0352,130.1602 Q30.3516,130.418 30.9141,130.418 Q31.248,130.418 31.4824,130.3418 Q31.6172,130.3008 31.7695,130.166 Q31.8691,130.0898 31.9219,130.0664 Q31.9746,130.043 32.0391,130.043 Q32.1621,130.043 32.2529,130.1396 Q32.3438,130.2363 32.3438,130.3711 Q32.3438,130.5 32.2148,130.6523 Q32.0273,130.875 31.7285,130.998 Q31.3359,131.168 30.8555,131.168 Q30.293,131.168 29.8418,130.9453 Q29.4785,130.7695 29.2236,130.3887 Q28.9688,130.0078 28.9688,129.5566 L28.9688,129.1465 Q28.9688,128.6777 29.1943,128.2676 Q29.4199,127.8574 29.8154,127.6377 Q30.2109,127.418 30.6563,127.418 Q30.9258,127.418 31.1602,127.5117 Q31.3945,127.6055 31.5938,127.793 Z "/><text fill="#000000" font-family="sans-serif" font-size="4.5" lengthAdjust="spacingAndGlyphs" textLength="22.875" x="38.5313" y="130.9468">ServerMain</text><line style="stroke: #A80036; stroke-width: 0.5625;" x1="14.625" x2="73.125" y1="135.1055" y2="135.1055"/><rect fill="none" height="2.25" style="stroke: #C82930; stroke-width: 0.375;" width="2.25" x="17.25" y="138.6372"/><text fill="#000000" font-family="sans-serif" font-size="4.125" lengthAdjust="spacingAndGlyphs" text-decoration="underline" textLength="24.375" x="21.75" y="140.8876">LOG : Logger</text><rect fill="none" height="2.25" style="stroke: #C82930; stroke-width: 0.375;" width="2.25" x="17.25" y="143.8257"/><text fill="#000000" font-family="sans-serif" font-size="4.125" lengthAdjust="spacingAndGlyphs" text-decoration="underline" textLength="49.5" x="21.75" y="146.076">deathMatchHall : ServerHall</text><rect fill="none" height="2.25" style="stroke: #C82930; stroke-width: 0.375;" width="2.25" x="17.25" y="149.0142"/><text fill="#000000" font-family="sans-serif" font-size="4.125" lengthAdjust="spacingAndGlyphs" text-decoration="underline" textLength="46.5" x="21.75" y="151.2645">secondsWaitingRoom : int</text><line style="stroke: #A80036; stroke-width: 0.5625;" x1="14.625" x2="73.125" y1="153.6709" y2="153.6709"/><ellipse cx="18.375" cy="158.3276" fill="#84BE84" rx="1.125" ry="1.125" style="stroke: #038048; stroke-width: 0.375;"/><text fill="#000000" font-family="sans-serif" font-size="4.125" lengthAdjust="spacingAndGlyphs" text-decoration="underline" textLength="36.375" x="21.75" y="159.453">getDeathMatchHall()</text><ellipse cx="18.375" cy="163.5161" fill="#84BE84" rx="1.125" ry="1.125" style="stroke: #038048; stroke-width: 0.375;"/><text fill="#000000" font-family="sans-serif" font-size="4.125" lengthAdjust="spacingAndGlyphs" text-decoration="underline" textLength="15.375" x="21.75" y="164.6415">getLog()</text><ellipse cx="18.375" cy="168.7046" fill="#84BE84" rx="1.125" ry="1.125" style="stroke: #038048; stroke-width: 0.375;"/><text fill="#000000" font-family="sans-serif" font-size="4.125" lengthAdjust="spacingAndGlyphs" text-decoration="underline" textLength="11.25" x="21.75" y="169.83">main()</text><rect fill="#F24D5C" height="2.25" style="stroke: #C82930; stroke-width: 0.375;" width="2.25" x="17.25" y="172.7681"/><text fill="#000000" font-family="sans-serif" font-size="4.125" lengthAdjust="spacingAndGlyphs" textLength="23.625" x="21.75" y="175.0184">ServerMain()</text><!--class it.polimi.ingsw.server.serverlogic.SuspensionListener--><rect fill="#FEFECE" filter="url(#f1uhd7pcakrt2e)" height="33.5654" id="it.polimi.ingsw.server.serverlogic.SuspensionListener" style="stroke: #A80036; stroke-width: 0.5625;" width="52.875" x="239.0625" y="133.418"/><ellipse cx="244.6875" cy="139.418" fill="#B4A7E5" rx="4.125" ry="4.125" style="stroke: #A80036; stroke-width: 0.375;"/><path d="M245.0625,138.293 L245.0625,140.543 L245.8125,140.543 L245.9941,140.543 L246.1875,140.7773 L246.1875,140.918 L246.1875,141.0586 L245.9941,141.293 L245.8125,141.293 L243.5625,141.293 L243.3809,141.293 L243.1875,141.0586 L243.1875,140.918 L243.1875,140.7773 L243.3809,140.543 L243.5625,140.543 L244.3125,140.543 L244.3125,138.293 L243.5625,138.293 L243.3809,138.293 L243.1875,138.0586 L243.1875,137.918 L243.1875,137.7773 L243.3809,137.543 L243.5625,137.543 L245.8125,137.543 L245.9941,137.543 L246.1875,137.7773 L246.1875,137.918 L246.1875,138.0586 L245.9941,138.293 L245.8125,138.293 L245.0625,138.293 Z "/><text fill="#000000" font-family="sans-serif" font-size="4.5" font-style="italic" lengthAdjust="spacingAndGlyphs" textLength="40.875" x="249.9375" y="141.2593">SuspensionListener</text><line style="stroke: #A80036; stroke-width: 0.5625;" x1="239.4375" x2="291.5625" y1="145.418" y2="145.418"/><line style="stroke: #A80036; stroke-width: 0.5625;" x1="239.4375" x2="291.5625" y1="148.418" y2="148.418"/><ellipse cx="243.1875" cy="153.0747" fill="#84BE84" rx="1.125" ry="1.125" style="stroke: #038048; stroke-width: 0.375;"/><text fill="#000000" font-family="sans-serif" font-size="4.125" font-style="italic" lengthAdjust="spacingAndGlyphs" textLength="36.375" x="246.5625" y="154.2001">playerResumption()</text><ellipse cx="243.1875" cy="158.2632" fill="#84BE84" rx="1.125" ry="1.125" style="stroke: #038048; stroke-width: 0.375;"/><text fill="#000000" font-family="sans-serif" font-size="4.125" font-style="italic" lengthAdjust="spacingAndGlyphs" textLength="36" x="246.5625" y="159.3885">playerSuspension()</text><ellipse cx="243.1875" cy="163.4517" fill="#84BE84" rx="1.125" ry="1.125" style="stroke: #038048; stroke-width: 0.375;"/><text fill="#000000" font-family="sans-serif" font-size="4.125" font-style="italic" lengthAdjust="spacingAndGlyphs" textLength="27" x="246.5625" y="164.577">playerUpdate()</text><!--class it.polimi.ingsw.server.serverlogic.ServerHall.GameStatus--><rect fill="#FEFECE" filter="url(#f1uhd7pcakrt2e)" height="18" id="it.polimi.ingsw.server.serverlogic.ServerHall.GameStatus" style="stroke: #A80036; stroke-width: 0.5625;" width="60.375" x="148.3125" y="263.918"/><ellipse cx="153.9375" cy="269.918" fill="#ADD1B2" rx="4.125" ry="4.125" style="stroke: #A80036; stroke-width: 0.375;"/><path d="M154.6875,268.6055 Q154.7637,268.418 154.8516,268.3242 Q154.9395,268.2305 155.0391,268.2305 Q155.2148,268.2305 155.3262,268.3359 Q155.4375,268.4414 155.4375,268.6875 L155.4375,269.2734 Q155.4375,269.5195 155.332,269.625 Q155.2266,269.7305 155.0625,269.7305 Q154.916,269.7305 154.8223,269.666 Q154.7285,269.6016 154.6875,269.4316 Q154.6699,269.3145 154.6055,269.25 Q154.4883,269.127 154.2773,269.0537 Q154.0664,268.9805 153.8555,268.9805 Q153.5918,268.9805 153.3721,269.0859 Q153.1523,269.1914 152.9824,269.4258 Q152.8125,269.6602 152.8125,269.9824 L152.8125,270.3281 Q152.8125,270.7148 153.1289,270.9727 Q153.4453,271.2305 154.0078,271.2305 Q154.3418,271.2305 154.5762,271.1543 Q154.7109,271.1133 154.8633,270.9785 Q154.9629,270.9023 155.0156,270.8789 Q155.0684,270.8555 155.1328,270.8555 Q155.2559,270.8555 155.3467,270.9521 Q155.4375,271.0488 155.4375,271.1836 Q155.4375,271.3125 155.3086,271.4648 Q155.1211,271.6875 154.8223,271.8105 Q154.4297,271.9805 153.9492,271.9805 Q153.3867,271.9805 152.9355,271.7578 Q152.5723,271.582 152.3174,271.2012 Q152.0625,270.8203 152.0625,270.3691 L152.0625,269.959 Q152.0625,269.4902 152.2881,269.0801 Q152.5137,268.6699 152.9092,268.4502 Q153.3047,268.2305 153.75,268.2305 Q154.0195,268.2305 154.2539,268.3242 Q154.4883,268.418 154.6875,268.6055 Z "/><text fill="#000000" font-family="sans-serif" font-size="4.5" lengthAdjust="spacingAndGlyphs" textLength="48.375" x="159.1875" y="271.7593">ServerHall.GameStatus</text><line style="stroke: #A80036; stroke-width: 0.5625;" x1="148.6875" x2="208.3125" y1="275.918" y2="275.918"/><line style="stroke: #A80036; stroke-width: 0.5625;" x1="148.6875" x2="208.3125" y1="278.918" y2="278.918"/><!--class java.lang.Runnable--><rect fill="#FEFECE" filter="url(#f1uhd7pcakrt2e)" height="18" id="java.lang.Runnable" style="stroke: #A80036; stroke-width: 0.5625;" width="32.25" x="165.75" y="39.4805"/><ellipse cx="171.375" cy="45.4805" fill="#ADD1B2" rx="4.125" ry="4.125" style="stroke: #A80036; stroke-width: 0.375;"/><path d="M172.125,44.168 Q172.2012,43.9805 172.2891,43.8867 Q172.377,43.793 172.4766,43.793 Q172.6523,43.793 172.7637,43.8984 Q172.875,44.0039 172.875,44.25 L172.875,44.8359 Q172.875,45.082 172.7695,45.1875 Q172.6641,45.293 172.5,45.293 Q172.3535,45.293 172.2598,45.2285 Q172.166,45.1641 172.125,44.9941 Q172.1074,44.877 172.043,44.8125 Q171.9258,44.6895 171.7148,44.6162 Q171.5039,44.543 171.293,44.543 Q171.0293,44.543 170.8096,44.6484 Q170.5898,44.7539 170.4199,44.9883 Q170.25,45.2227 170.25,45.5449 L170.25,45.8906 Q170.25,46.2773 170.5664,46.5352 Q170.8828,46.793 171.4453,46.793 Q171.7793,46.793 172.0137,46.7168 Q172.1484,46.6758 172.3008,46.541 Q172.4004,46.4648 172.4531,46.4414 Q172.5059,46.418 172.5703,46.418 Q172.6934,46.418 172.7842,46.5146 Q172.875,46.6113 172.875,46.7461 Q172.875,46.875 172.7461,47.0273 Q172.5586,47.25 172.2598,47.373 Q171.8672,47.543 171.3867,47.543 Q170.8242,47.543 170.373,47.3203 Q170.0098,47.1445 169.7549,46.7637 Q169.5,46.3828 169.5,45.9316 L169.5,45.5215 Q169.5,45.0527 169.7256,44.6426 Q169.9512,44.2324 170.3467,44.0127 Q170.7422,43.793 171.1875,43.793 Q171.457,43.793 171.6914,43.8867 Q171.9258,43.9805 172.125,44.168 Z "/><text fill="#000000" font-family="sans-serif" font-size="4.5" lengthAdjust="spacingAndGlyphs" textLength="20.25" x="176.625" y="47.3218">Runnable</text><line style="stroke: #A80036; stroke-width: 0.5625;" x1="166.125" x2="197.625" y1="51.4805" y2="51.4805"/><line style="stroke: #A80036; stroke-width: 0.5625;" x1="166.125" x2="197.625" y1="54.4805" y2="54.4805"/><!--link it.polimi.ingsw.server.serverlogic.SuspensionListener to it.polimi.ingsw.server.serverlogic.Nicknames--><path d="M264.9803,174.7955 C264.5753,193.6036 264.009,219.8933 263.5658,240.4718 " fill="none" id="it.polimi.ingsw.server.serverlogic.SuspensionListener-it.polimi.ingsw.server.serverlogic.Nicknames" style="stroke: #A80036; stroke-width: 0.375; stroke-dasharray: 7.0,7.0;"/><polygon fill="none" points="262.3575,174.6732,265.1434,167.2313,267.606,174.7861,262.3575,174.6732" style="stroke: #A80036; stroke-width: 0.375;"/><!--link java.lang.Runnable to it.polimi.ingsw.server.serverlogic.ServerHall--><path d="M181.875,65.1507 C181.875,72.0125 181.875,80.4646 181.875,89.3476 " fill="none" id="java.lang.Runnable-it.polimi.ingsw.server.serverlogic.ServerHall" style="stroke: #A80036; stroke-width: 0.375; stroke-dasharray: 7.0,7.0;"/><polygon fill="none" points="179.25,65.1473,181.875,57.6473,184.5,65.1473,179.25,65.1473" style="stroke: #A80036; stroke-width: 0.375;"/><!--link it.polimi.ingsw.server.serverlogic.ServerHall to it.polimi.ingsw.server.serverlogic.ServerHall.GameStatus--><path d="M151.4194,216.1902 C151.3564,220.5773 151.8341,224.9521 153,229.2305 C156.579,242.3641 165.2651,255.5746 171.5051,263.8913 " fill="none" id="it.polimi.ingsw.server.serverlogic.ServerHall-it.polimi.ingsw.server.serverlogic.ServerHall.GameStatus" style="stroke: #A80036; stroke-width: 0.375;"/><polygon fill="#FFFFFF" points="151.7126,211.2361,150.0822,213.3935,151.4466,215.7282,153.077,213.5708,151.7126,211.2361" style="stroke: #A80036; stroke-width: 0.375;"/><text fill="#000000" font-family="sans-serif" font-size="4.875" lengthAdjust="spacingAndGlyphs" textLength="36.75" x="153.375" y="227.9161">statusNextGame</text><!--link it.polimi.ingsw.server.serverlogic.ServerHall to it.polimi.ingsw.server.serverlogic.ServerHall.GameStatus--><path d="M193.0601,216.9687 C192.9435,221.1207 192.6083,225.2348 192,229.2305 C190.1273,241.5335 185.4236,255.1486 182.097,263.7695 " fill="none" id="it.polimi.ingsw.server.serverlogic.ServerHall-it.polimi.ingsw.server.serverlogic.ServerHall.GameStatus-1" style="stroke: #A80036; stroke-width: 0.375;"/><ellipse cx="193.0739" cy="214.2908" fill="#FFFFFF" rx="3" ry="3" style="stroke: #A80036; stroke-width: 0.375;"/><line style="stroke: #A80036; stroke-width: 0.375;" x1="193.0587" x2="193.089" y1="217.2908" y2="211.2908"/><line style="stroke: #A80036; stroke-width: 0.375;" x1="190.0739" x2="196.0738" y1="214.2757" y2="214.3059"/><text fill="#888888" font-family="sans-serif" font-size="3.75" lengthAdjust="spacingAndGlyphs" textLength="0" x="310.875" y="324.9983"/><text fill="#888888" font-family="sans-serif" font-size="3.75" lengthAdjust="spacingAndGlyphs" textLength="0" x="310.875" y="329.7151"/><text fill="#888888" font-family="sans-serif" font-size="3.75" lengthAdjust="spacingAndGlyphs" textLength="147" x="163.875" y="334.4319">PlantUML diagram generated by SketchIt! (https://bitbucket.org/pmesmeur/sketch.it)</text><text fill="#888888" font-family="sans-serif" font-size="3.75" lengthAdjust="spacingAndGlyphs" textLength="147.75" x="163.125" y="339.1487">For more information about this tool, please contact philippe.mesmeur@gmail.com</text><!--
@startuml

title __SERVER SERVERLOGIC's Class Diagram__\n

  namespace it.polimi.ingsw.server.serverlogic {
    class it.polimi.ingsw.server.serverlogic.Nicknames {
        {static} - instance : Nicknames
        - offlineNames : List<String>
        - onlineNames : List<String>
        + addNickname()
        {static} + getInstance()
        + playerResumption()
        + playerSuspension()
        + playerUpdate()
        - Nicknames()
    }
  }


  namespace it.polimi.ingsw.server.serverlogic {
    class it.polimi.ingsw.server.serverlogic.ServerHall {
        {static} - MAXIMUM_PLAYERS : int
        {static} - MINIMUM_PLAYERS : int
        - connectedUsers : List<User>
        - running : boolean
        - secondsWaitingRoom : int
        - startedGames : List<DeathmatchController>
        - timer : Future
        + addUser()
        + notifyMatchesPlayerResumption()
        + removeMatch()
        + run()
        ~ ServerHall()
        - getConfiguration()
        - notifyAll()
        - startMatch()
        - startTimer()
        - stopTimer()
        - timeOut()
        - updateAll()
        - updateAll()
    }
  }


  namespace it.polimi.ingsw.server.serverlogic {
    enum GameStatus {
      NOT_STARTED
      TIMER_STARTED
      WAITING
    }
  }


  namespace it.polimi.ingsw.server.serverlogic {
    class it.polimi.ingsw.server.serverlogic.ServerMain {
        {static} - LOG : Logger
        {static} - deathMatchHall : ServerHall
        {static} - secondsWaitingRoom : int
        {static} + getDeathMatchHall()
        {static} + getLog()
        {static} + main()
        - ServerMain()
    }
  }


  namespace it.polimi.ingsw.server.serverlogic {
    interface it.polimi.ingsw.server.serverlogic.SuspensionListener {
        {abstract} + playerResumption()
        {abstract} + playerSuspension()
        {abstract} + playerUpdate()
    }
  }


  it.polimi.ingsw.server.serverlogic.Nicknames .up.|> it.polimi.ingsw.server.serverlogic.SuspensionListener
  it.polimi.ingsw.server.serverlogic.ServerHall .up.|> java.lang.Runnable
  it.polimi.ingsw.server.serverlogic.ServerHall o- - it.polimi.ingsw.server.serverlogic.ServerHall.GameStatus : statusNextGame
  it.polimi.ingsw.server.serverlogic.ServerHall +-down- it.polimi.ingsw.server.serverlogic.ServerHall.GameStatus


right footer


PlantUML diagram generated by SketchIt! (https://bitbucket.org/pmesmeur/sketch.it)
For more information about this tool, please contact philippe.mesmeur@gmail.com
endfooter

@enduml

PlantUML version 1.2019.05(Sat Apr 20 18:45:36 CEST 2019)
(GPL source distribution)
Java Runtime: OpenJDK Runtime Environment
JVM: OpenJDK 64-Bit Server VM
Java Version: 1.8.0_202-release-1483-b58
Operating System: Windows 10
OS Version: 10.0
Default Encoding: Cp1252
Language: it
Country: IT
--></g></svg>