<?xml version="1.0" encoding="UTF-8" standalone="no"?><svg xmlns="http://www.w3.org/2000/svg" xmlns:xlink="http://www.w3.org/1999/xlink" contentScriptType="application/ecmascript" contentStyleType="text/css" height="287.25px" preserveAspectRatio="none" style="width:580px;height:287px;" version="1.1" viewBox="0 0 580 287" width="580.875px" zoomAndPan="magnify"><defs><filter height="300%" id="f1nnif885ei89x" width="300%" x="-1" y="-1"><feGaussianBlur result="blurOut" stdDeviation="0.75"/><feColorMatrix in="blurOut" result="blurOut2" type="matrix" values="0 0 0 0 0 0 0 0 0 0 0 0 0 0 0 0 0 0 .4 0"/><feOffset dx="1.5" dy="1.5" in="blurOut2" result="blurOut3"/><feBlend in="SourceGraphic" in2="blurOut3" mode="normal"/></filter></defs><g><text fill="#000000" font-family="sans-serif" font-size="6.75" lengthAdjust="spacingAndGlyphs" text-decoration="underline" textLength="103.5" x="236.4375" y="7.0071">SERVER MODEL's Class Diagram</text><text fill="#000000" font-family="sans-serif" font-size="6.75" lengthAdjust="spacingAndGlyphs" textLength="0" x="289.125" y="15.4973"/><!--cluster it.polimi.ingsw.server.model--><polygon fill="#FFFFFF" filter="url(#f1nnif885ei89x)" points="8.25,25.9805,84.75,25.9805,87.375,34.834,457.5,34.834,457.5,254.7305,8.25,254.7305,8.25,25.9805" style="stroke: #000000; stroke-width: 0.5625;"/><line style="stroke: #000000; stroke-width: 0.5625;" x1="8.25" x2="87.375" y1="34.834" y2="34.834"/><text fill="#000000" font-family="sans-serif" font-size="5.25" font-weight="bold" lengthAdjust="spacingAndGlyphs" textLength="74.25" x="9.75" y="32.1804">it.polimi.ingsw.server.model</text><!--cluster it.polimi.ingsw.server.model.cards--><polygon fill="#FFFFFF" filter="url(#f1nnif885ei89x)" points="17.25,42.4805,34.125,42.4805,36.75,51.334,448.5,51.334,448.5,198.4805,17.25,198.4805,17.25,42.4805" style="stroke: #000000; stroke-width: 0.5625;"/><line style="stroke: #000000; stroke-width: 0.5625;" x1="17.25" x2="36.75" y1="51.334" y2="51.334"/><text fill="#000000" font-family="sans-serif" font-size="5.25" font-weight="bold" lengthAdjust="spacingAndGlyphs" textLength="14.625" x="18.75" y="48.6804">cards</text><!--cluster it.polimi.ingsw.server.model.board--><polygon fill="#FFFFFF" filter="url(#f1nnif885ei89x)" points="466.5,217.2305,559.875,217.2305,562.5,226.084,563.625,226.084,563.625,254.7305,466.5,254.7305,466.5,217.2305" style="stroke: #000000; stroke-width: 0.5625;"/><line style="stroke: #000000; stroke-width: 0.5625;" x1="466.5" x2="562.5" y1="226.084" y2="226.084"/><text fill="#000000" font-family="sans-serif" font-size="5.25" font-weight="bold" lengthAdjust="spacingAndGlyphs" textLength="91.125" x="468" y="223.4304">it.polimi.ingsw.server.model.board</text><!--class it.polimi.ingsw.server.model.AmmoCube--><rect fill="#FEFECE" filter="url(#f1nnif885ei89x)" height="18" id="it.polimi.ingsw.server.model.AmmoCube" style="stroke: #A80036; stroke-width: 0.5625;" width="36.75" x="103.875" y="230.7305"/><ellipse cx="109.5" cy="236.7305" fill="#ADD1B2" rx="4.125" ry="4.125" style="stroke: #A80036; stroke-width: 0.375;"/><path d="M110.25,235.418 Q110.3262,235.2305 110.4141,235.1367 Q110.502,235.043 110.6016,235.043 Q110.7773,235.043 110.8887,235.1484 Q111,235.2539 111,235.5 L111,236.0859 Q111,236.332 110.8945,236.4375 Q110.7891,236.543 110.625,236.543 Q110.4785,236.543 110.3848,236.4785 Q110.291,236.4141 110.25,236.2441 Q110.2324,236.127 110.168,236.0625 Q110.0508,235.9395 109.8398,235.8662 Q109.6289,235.793 109.418,235.793 Q109.1543,235.793 108.9346,235.8984 Q108.7148,236.0039 108.5449,236.2383 Q108.375,236.4727 108.375,236.7949 L108.375,237.1406 Q108.375,237.5273 108.6914,237.7852 Q109.0078,238.043 109.5703,238.043 Q109.9043,238.043 110.1387,237.9668 Q110.2734,237.9258 110.4258,237.791 Q110.5254,237.7148 110.5781,237.6914 Q110.6309,237.668 110.6953,237.668 Q110.8184,237.668 110.9092,237.7646 Q111,237.8613 111,237.9961 Q111,238.125 110.8711,238.2773 Q110.6836,238.5 110.3848,238.623 Q109.9922,238.793 109.5117,238.793 Q108.9492,238.793 108.498,238.5703 Q108.1348,238.3945 107.8799,238.0137 Q107.625,237.6328 107.625,237.1816 L107.625,236.7715 Q107.625,236.3027 107.8506,235.8926 Q108.0762,235.4824 108.4717,235.2627 Q108.8672,235.043 109.3125,235.043 Q109.582,235.043 109.8164,235.1367 Q110.0508,235.2305 110.25,235.418 Z "/><text fill="#000000" font-family="sans-serif" font-size="4.5" lengthAdjust="spacingAndGlyphs" textLength="24.75" x="114.75" y="238.5718">AmmoCube</text><line style="stroke: #A80036; stroke-width: 0.5625;" x1="104.25" x2="140.25" y1="242.7305" y2="242.7305"/><line style="stroke: #A80036; stroke-width: 0.5625;" x1="104.25" x2="140.25" y1="245.7305" y2="245.7305"/><!--class it.polimi.ingsw.server.model.cards.AbstractCard--><rect fill="#FEFECE" filter="url(#f1nnif885ei89x)" height="43.9424" id="it.polimi.ingsw.server.model.cards.AbstractCard" style="stroke: #A80036; stroke-width: 0.5625;" width="43.125" x="100.6875" y="55.9805"/><ellipse cx="108.1687" cy="61.9805" fill="#A9DCDF" rx="4.125" ry="4.125" style="stroke: #A80036; stroke-width: 0.375;"/><path d="M108.825,62.543 L107.5887,62.543 L107.4246,62.918 L107.4246,62.918 L107.6004,62.918 L107.7937,63.1523 L107.7937,63.293 L107.7937,63.4336 L107.6004,63.668 L107.4246,63.668 L106.7156,63.668 L106.4871,63.668 L106.2937,63.4336 L106.2937,63.293 L106.2937,63.1523 L106.4871,62.918 L106.7156,62.918 L107.5828,60.668 L107.2547,60.668 L106.8621,60.668 L106.6687,60.4336 L106.6687,60.293 L106.6687,60.1523 L106.8621,59.918 L107.2547,59.918 L108.6316,59.918 L109.6395,62.918 L109.8504,62.918 L109.8504,62.918 L110.0437,63.1523 L110.0437,63.293 L110.0437,63.4336 L109.8504,63.668 L109.6395,63.668 L108.9305,63.668 L108.7371,63.668 L108.5437,63.4336 L108.5437,63.293 L108.5437,63.1523 L108.7371,62.918 L108.9305,62.918 L108.9305,62.918 L108.825,62.543 Z M108.6199,61.793 L108.1687,60.4512 L107.782,61.793 L108.6199,61.793 Z "/><text fill="#000000" font-family="sans-serif" font-size="4.5" font-style="italic" lengthAdjust="spacingAndGlyphs" textLength="27" x="113.8313" y="63.8218">AbstractCard</text><line style="stroke: #A80036; stroke-width: 0.5625;" x1="101.0625" x2="143.4375" y1="67.9805" y2="67.9805"/><rect fill="none" height="2.25" style="stroke: #C82930; stroke-width: 0.375;" width="2.25" x="103.6875" y="71.5122"/><text fill="#000000" font-family="sans-serif" font-size="4.125" lengthAdjust="spacingAndGlyphs" textLength="33.375" x="108.1875" y="73.7626">resourceId : String</text><line style="stroke: #A80036; stroke-width: 0.5625;" x1="101.0625" x2="143.4375" y1="76.1689" y2="76.1689"/><ellipse cx="104.8125" cy="80.8257" fill="#84BE84" rx="1.125" ry="1.125" style="stroke: #038048; stroke-width: 0.375;"/><text fill="#000000" font-family="sans-serif" font-size="4.125" lengthAdjust="spacingAndGlyphs" textLength="15" x="108.1875" y="81.951">equals()</text><ellipse cx="104.8125" cy="86.0142" fill="#84BE84" rx="1.125" ry="1.125" style="stroke: #038048; stroke-width: 0.375;"/><text fill="#000000" font-family="sans-serif" font-size="4.125" lengthAdjust="spacingAndGlyphs" textLength="11.625" x="108.1875" y="87.1395">getId()</text><ellipse cx="104.8125" cy="91.2026" fill="#84BE84" rx="1.125" ry="1.125" style="stroke: #038048; stroke-width: 0.375;"/><text fill="#000000" font-family="sans-serif" font-size="4.125" lengthAdjust="spacingAndGlyphs" textLength="21.375" x="108.1875" y="92.328">hashCode()</text><polygon fill="#4177AF" points="104.8125,94.8911,103.3125,97.1411,106.3125,97.1411" style="stroke: #1963A0; stroke-width: 0.375;"/><text fill="#000000" font-family="sans-serif" font-size="4.125" lengthAdjust="spacingAndGlyphs" textLength="27.375" x="108.1875" y="97.5165">AbstractCard()</text><!--class it.polimi.ingsw.server.model.cards.AbstractDeck--><rect fill="#FEFECE" filter="url(#f1nnif885ei89x)" height="28.377" id="it.polimi.ingsw.server.model.cards.AbstractDeck" style="stroke: #A80036; stroke-width: 0.5625;" width="39.75" x="324.375" y="63.668"/><ellipse cx="330" cy="69.668" fill="#B4A7E5" rx="4.125" ry="4.125" style="stroke: #A80036; stroke-width: 0.375;"/><path d="M330.375,68.543 L330.375,70.793 L331.125,70.793 L331.3066,70.793 L331.5,71.0273 L331.5,71.168 L331.5,71.3086 L331.3066,71.543 L331.125,71.543 L328.875,71.543 L328.6934,71.543 L328.5,71.3086 L328.5,71.168 L328.5,71.0273 L328.6934,70.793 L328.875,70.793 L329.625,70.793 L329.625,68.543 L328.875,68.543 L328.6934,68.543 L328.5,68.3086 L328.5,68.168 L328.5,68.0273 L328.6934,67.793 L328.875,67.793 L331.125,67.793 L331.3066,67.793 L331.5,68.0273 L331.5,68.168 L331.5,68.3086 L331.3066,68.543 L331.125,68.543 L330.375,68.543 Z "/><text fill="#000000" font-family="sans-serif" font-size="4.5" font-style="italic" lengthAdjust="spacingAndGlyphs" textLength="27.75" x="335.25" y="71.5093">AbstractDeck</text><line style="stroke: #A80036; stroke-width: 0.5625;" x1="324.75" x2="363.75" y1="75.668" y2="75.668"/><line style="stroke: #A80036; stroke-width: 0.5625;" x1="324.75" x2="363.75" y1="78.668" y2="78.668"/><ellipse cx="328.5" cy="83.3247" fill="#84BE84" rx="1.125" ry="1.125" style="stroke: #038048; stroke-width: 0.375;"/><text fill="#000000" font-family="sans-serif" font-size="4.125" font-style="italic" lengthAdjust="spacingAndGlyphs" textLength="20.25" x="331.875" y="84.4501">cardsLeft()</text><ellipse cx="328.5" cy="88.5132" fill="#84BE84" rx="1.125" ry="1.125" style="stroke: #038048; stroke-width: 0.375;"/><text fill="#000000" font-family="sans-serif" font-size="4.125" font-style="italic" lengthAdjust="spacingAndGlyphs" textLength="20.625" x="331.875" y="89.6385">drawCard()</text><!--class it.polimi.ingsw.server.model.cards.AmmoCard--><rect fill="#FEFECE" filter="url(#f1nnif885ei89x)" height="43.9424" id="it.polimi.ingsw.server.model.cards.AmmoCard" style="stroke: #A80036; stroke-width: 0.5625;" width="47.25" x="23.25" y="135.668"/><ellipse cx="34.1063" cy="141.668" fill="#ADD1B2" rx="4.125" ry="4.125" style="stroke: #A80036; stroke-width: 0.375;"/><path d="M34.8563,140.3555 Q34.9324,140.168 35.0203,140.0742 Q35.1082,139.9805 35.2078,139.9805 Q35.3836,139.9805 35.4949,140.0859 Q35.6063,140.1914 35.6063,140.4375 L35.6063,141.0234 Q35.6063,141.2695 35.5008,141.375 Q35.3953,141.4805 35.2313,141.4805 Q35.0848,141.4805 34.991,141.416 Q34.8973,141.3516 34.8563,141.1816 Q34.8387,141.0645 34.7742,141 Q34.657,140.877 34.4461,140.8037 Q34.2352,140.7305 34.0242,140.7305 Q33.7605,140.7305 33.5408,140.8359 Q33.3211,140.9414 33.1512,141.1758 Q32.9813,141.4102 32.9813,141.7324 L32.9813,142.0781 Q32.9813,142.4648 33.2977,142.7227 Q33.6141,142.9805 34.1766,142.9805 Q34.5105,142.9805 34.7449,142.9043 Q34.8797,142.8633 35.032,142.7285 Q35.1316,142.6523 35.1844,142.6289 Q35.2371,142.6055 35.3016,142.6055 Q35.4246,142.6055 35.5154,142.7021 Q35.6063,142.7988 35.6063,142.9336 Q35.6063,143.0625 35.4773,143.2148 Q35.2898,143.4375 34.991,143.5605 Q34.5984,143.7305 34.118,143.7305 Q33.5555,143.7305 33.1043,143.5078 Q32.741,143.332 32.4861,142.9512 Q32.2313,142.5703 32.2313,142.1191 L32.2313,141.709 Q32.2313,141.2402 32.4568,140.8301 Q32.6824,140.4199 33.0779,140.2002 Q33.4734,139.9805 33.9188,139.9805 Q34.1883,139.9805 34.4227,140.0742 Q34.657,140.168 34.8563,140.3555 Z "/><text fill="#000000" font-family="sans-serif" font-size="4.5" lengthAdjust="spacingAndGlyphs" textLength="23.625" x="40.5188" y="143.5093">AmmoCard</text><line style="stroke: #A80036; stroke-width: 0.5625;" x1="23.625" x2="70.125" y1="147.668" y2="147.668"/><rect fill="none" height="2.25" style="stroke: #C82930; stroke-width: 0.375;" width="2.25" x="26.25" y="151.1997"/><text fill="#000000" font-family="sans-serif" font-size="4.125" lengthAdjust="spacingAndGlyphs" textLength="37.5" x="30.75" y="153.4501">cubes : AmmoCube[]</text><rect fill="none" height="2.25" style="stroke: #C82930; stroke-width: 0.375;" width="2.25" x="26.25" y="156.3882"/><text fill="#000000" font-family="sans-serif" font-size="4.125" lengthAdjust="spacingAndGlyphs" textLength="34.125" x="30.75" y="158.6385">powerup : boolean</text><line style="stroke: #A80036; stroke-width: 0.5625;" x1="23.625" x2="70.125" y1="161.0449" y2="161.0449"/><ellipse cx="27.375" cy="165.7017" fill="#84BE84" rx="1.125" ry="1.125" style="stroke: #038048; stroke-width: 0.375;"/><text fill="#000000" font-family="sans-serif" font-size="4.125" lengthAdjust="spacingAndGlyphs" textLength="22.875" x="30.75" y="166.827">AmmoCard()</text><ellipse cx="27.375" cy="170.8901" fill="#84BE84" rx="1.125" ry="1.125" style="stroke: #038048; stroke-width: 0.375;"/><text fill="#000000" font-family="sans-serif" font-size="4.125" lengthAdjust="spacingAndGlyphs" textLength="20.25" x="30.75" y="172.0155">getCubes()</text><ellipse cx="27.375" cy="176.0786" fill="#84BE84" rx="1.125" ry="1.125" style="stroke: #038048; stroke-width: 0.375;"/><text fill="#000000" font-family="sans-serif" font-size="4.125" lengthAdjust="spacingAndGlyphs" textLength="26.25" x="30.75" y="177.204">hasPowerup()</text><!--class it.polimi.ingsw.server.model.cards.AmmoDeck--><rect fill="#FEFECE" filter="url(#f1nnif885ei89x)" height="38.7539" id="it.polimi.ingsw.server.model.cards.AmmoDeck" style="stroke: #A80036; stroke-width: 0.5625;" width="52.5" x="249.75" y="138.293"/><ellipse cx="262.8" cy="144.293" fill="#ADD1B2" rx="4.125" ry="4.125" style="stroke: #A80036; stroke-width: 0.375;"/><path d="M263.55,142.9805 Q263.6262,142.793 263.7141,142.6992 Q263.802,142.6055 263.9016,142.6055 Q264.0773,142.6055 264.1887,142.7109 Q264.3,142.8164 264.3,143.0625 L264.3,143.6484 Q264.3,143.8945 264.1945,144 Q264.0891,144.1055 263.925,144.1055 Q263.7785,144.1055 263.6848,144.041 Q263.591,143.9766 263.55,143.8066 Q263.5324,143.6895 263.468,143.625 Q263.3508,143.502 263.1398,143.4287 Q262.9289,143.3555 262.718,143.3555 Q262.4543,143.3555 262.2346,143.4609 Q262.0148,143.5664 261.8449,143.8008 Q261.675,144.0352 261.675,144.3574 L261.675,144.7031 Q261.675,145.0898 261.9914,145.3477 Q262.3078,145.6055 262.8703,145.6055 Q263.2043,145.6055 263.4387,145.5293 Q263.5734,145.4883 263.7258,145.3535 Q263.8254,145.2773 263.8781,145.2539 Q263.9309,145.2305 263.9953,145.2305 Q264.1184,145.2305 264.2092,145.3271 Q264.3,145.4238 264.3,145.5586 Q264.3,145.6875 264.1711,145.8398 Q263.9836,146.0625 263.6848,146.1855 Q263.2922,146.3555 262.8117,146.3555 Q262.2492,146.3555 261.798,146.1328 Q261.4348,145.957 261.1799,145.5762 Q260.925,145.1953 260.925,144.7441 L260.925,144.334 Q260.925,143.8652 261.1506,143.4551 Q261.3762,143.0449 261.7717,142.8252 Q262.1672,142.6055 262.6125,142.6055 Q262.882,142.6055 263.1164,142.6992 Q263.3508,142.793 263.55,142.9805 Z "/><text fill="#000000" font-family="sans-serif" font-size="4.5" lengthAdjust="spacingAndGlyphs" textLength="24" x="269.7" y="146.1343">AmmoDeck</text><line style="stroke: #A80036; stroke-width: 0.5625;" x1="250.125" x2="301.875" y1="150.293" y2="150.293"/><rect fill="none" height="2.25" style="stroke: #C82930; stroke-width: 0.375;" width="2.25" x="252.75" y="153.8247"/><text fill="#000000" font-family="sans-serif" font-size="4.125" lengthAdjust="spacingAndGlyphs" textLength="42.75" x="257.25" y="156.0751">deck : List&lt;AmmoCard&gt;</text><line style="stroke: #A80036; stroke-width: 0.5625;" x1="250.125" x2="301.875" y1="158.4814" y2="158.4814"/><ellipse cx="253.875" cy="163.1382" fill="#84BE84" rx="1.125" ry="1.125" style="stroke: #038048; stroke-width: 0.375;"/><text fill="#000000" font-family="sans-serif" font-size="4.125" lengthAdjust="spacingAndGlyphs" textLength="23.25" x="257.25" y="164.2635">AmmoDeck()</text><ellipse cx="253.875" cy="168.3267" fill="#84BE84" rx="1.125" ry="1.125" style="stroke: #038048; stroke-width: 0.375;"/><text fill="#000000" font-family="sans-serif" font-size="4.125" lengthAdjust="spacingAndGlyphs" textLength="20.625" x="257.25" y="169.452">cardsLeft()</text><ellipse cx="253.875" cy="173.5151" fill="#84BE84" rx="1.125" ry="1.125" style="stroke: #038048; stroke-width: 0.375;"/><text fill="#000000" font-family="sans-serif" font-size="4.125" lengthAdjust="spacingAndGlyphs" textLength="21.375" x="257.25" y="174.6405">drawCard()</text><!--class it.polimi.ingsw.server.model.cards.PowerupCard--><rect fill="#FEFECE" filter="url(#f1nnif885ei89x)" height="69.8848" id="it.polimi.ingsw.server.model.cards.PowerupCard" style="stroke: #A80036; stroke-width: 0.5625;" width="76.875" x="83.8125" y="122.7305"/><ellipse cx="106.4063" cy="128.7305" fill="#ADD1B2" rx="4.125" ry="4.125" style="stroke: #A80036; stroke-width: 0.375;"/><path d="M107.1563,127.418 Q107.2324,127.2305 107.3203,127.1367 Q107.4082,127.043 107.5078,127.043 Q107.6836,127.043 107.7949,127.1484 Q107.9063,127.2539 107.9063,127.5 L107.9063,128.0859 Q107.9063,128.332 107.8008,128.4375 Q107.6953,128.543 107.5313,128.543 Q107.3848,128.543 107.291,128.4785 Q107.1973,128.4141 107.1563,128.2441 Q107.1387,128.127 107.0742,128.0625 Q106.957,127.9395 106.7461,127.8662 Q106.5352,127.793 106.3242,127.793 Q106.0605,127.793 105.8408,127.8984 Q105.6211,128.0039 105.4512,128.2383 Q105.2813,128.4727 105.2813,128.7949 L105.2813,129.1406 Q105.2813,129.5273 105.5977,129.7852 Q105.9141,130.043 106.4766,130.043 Q106.8105,130.043 107.0449,129.9668 Q107.1797,129.9258 107.332,129.791 Q107.4316,129.7148 107.4844,129.6914 Q107.5371,129.668 107.6016,129.668 Q107.7246,129.668 107.8154,129.7646 Q107.9063,129.8613 107.9063,129.9961 Q107.9063,130.125 107.7773,130.2773 Q107.5898,130.5 107.291,130.623 Q106.8984,130.793 106.418,130.793 Q105.8555,130.793 105.4043,130.5703 Q105.041,130.3945 104.7861,130.0137 Q104.5313,129.6328 104.5313,129.1816 L104.5313,128.7715 Q104.5313,128.3027 104.7568,127.8926 Q104.9824,127.4824 105.3779,127.2627 Q105.7734,127.043 106.2188,127.043 Q106.4883,127.043 106.7227,127.1367 Q106.957,127.2305 107.1563,127.418 Z "/><text fill="#000000" font-family="sans-serif" font-size="4.5" lengthAdjust="spacingAndGlyphs" textLength="28.5" x="114.0938" y="130.5718">PowerupCard</text><line style="stroke: #A80036; stroke-width: 0.5625;" x1="84.1875" x2="160.3125" y1="134.7305" y2="134.7305"/><rect fill="none" height="2.25" style="stroke: #C82930; stroke-width: 0.375;" width="2.25" x="86.8125" y="138.2622"/><text fill="#000000" font-family="sans-serif" font-size="4.125" lengthAdjust="spacingAndGlyphs" textLength="27.75" x="91.3125" y="140.5126">effectId : String</text><rect fill="none" height="2.25" style="stroke: #C82930; stroke-width: 0.375;" width="2.25" x="86.8125" y="143.4507"/><text fill="#000000" font-family="sans-serif" font-size="4.125" lengthAdjust="spacingAndGlyphs" textLength="46.5" x="91.3125" y="145.701">usableAsAction : boolean</text><rect fill="none" height="2.25" style="stroke: #C82930; stroke-width: 0.375;" width="2.25" x="86.8125" y="148.6392"/><text fill="#000000" font-family="sans-serif" font-size="4.125" lengthAdjust="spacingAndGlyphs" textLength="62.625" x="91.3125" y="150.8895">usableOnDealingDamage : boolean</text><rect fill="none" height="2.25" style="stroke: #C82930; stroke-width: 0.375;" width="2.25" x="86.8125" y="153.8276"/><text fill="#000000" font-family="sans-serif" font-size="4.125" lengthAdjust="spacingAndGlyphs" textLength="67.125" x="91.3125" y="156.078">usableOnReceivingDamage : boolean</text><line style="stroke: #A80036; stroke-width: 0.5625;" x1="84.1875" x2="160.3125" y1="158.4844" y2="158.4844"/><ellipse cx="87.9375" cy="163.1411" fill="#84BE84" rx="1.125" ry="1.125" style="stroke: #038048; stroke-width: 0.375;"/><text fill="#000000" font-family="sans-serif" font-size="4.125" lengthAdjust="spacingAndGlyphs" textLength="28.125" x="91.3125" y="164.2665">PowerupCard()</text><ellipse cx="87.9375" cy="168.3296" fill="#84BE84" rx="1.125" ry="1.125" style="stroke: #038048; stroke-width: 0.375;"/><text fill="#000000" font-family="sans-serif" font-size="4.125" lengthAdjust="spacingAndGlyphs" textLength="18" x="91.3125" y="169.455">getCube()</text><ellipse cx="87.9375" cy="173.5181" fill="#84BE84" rx="1.125" ry="1.125" style="stroke: #038048; stroke-width: 0.375;"/><text fill="#000000" font-family="sans-serif" font-size="4.125" lengthAdjust="spacingAndGlyphs" textLength="19.5" x="91.3125" y="174.6434">getEffect()</text><ellipse cx="87.9375" cy="178.7065" fill="#84BE84" rx="1.125" ry="1.125" style="stroke: #038048; stroke-width: 0.375;"/><text fill="#000000" font-family="sans-serif" font-size="4.125" lengthAdjust="spacingAndGlyphs" textLength="35.25" x="91.3125" y="179.8319">isUsableAsAction()</text><ellipse cx="87.9375" cy="183.895" fill="#84BE84" rx="1.125" ry="1.125" style="stroke: #038048; stroke-width: 0.375;"/><text fill="#000000" font-family="sans-serif" font-size="4.125" lengthAdjust="spacingAndGlyphs" textLength="51.375" x="91.3125" y="185.0204">isUsableOnDealingDamage()</text><ellipse cx="87.9375" cy="189.0835" fill="#84BE84" rx="1.125" ry="1.125" style="stroke: #038048; stroke-width: 0.375;"/><text fill="#000000" font-family="sans-serif" font-size="4.125" lengthAdjust="spacingAndGlyphs" textLength="55.875" x="91.3125" y="190.2089">isUsableOnReceivingDamage()</text><!--class it.polimi.ingsw.server.model.cards.PowerupDeck--><rect fill="#FEFECE" filter="url(#f1nnif885ei89x)" height="38.7539" id="it.polimi.ingsw.server.model.cards.PowerupDeck" style="stroke: #A80036; stroke-width: 0.5625;" width="57.75" x="315.375" y="138.293"/><ellipse cx="328.5938" cy="144.293" fill="#ADD1B2" rx="4.125" ry="4.125" style="stroke: #A80036; stroke-width: 0.375;"/><path d="M329.3438,142.9805 Q329.4199,142.793 329.5078,142.6992 Q329.5957,142.6055 329.6953,142.6055 Q329.8711,142.6055 329.9824,142.7109 Q330.0938,142.8164 330.0938,143.0625 L330.0938,143.6484 Q330.0938,143.8945 329.9883,144 Q329.8828,144.1055 329.7188,144.1055 Q329.5723,144.1055 329.4785,144.041 Q329.3848,143.9766 329.3438,143.8066 Q329.3262,143.6895 329.2617,143.625 Q329.1445,143.502 328.9336,143.4287 Q328.7227,143.3555 328.5117,143.3555 Q328.248,143.3555 328.0283,143.4609 Q327.8086,143.5664 327.6387,143.8008 Q327.4688,144.0352 327.4688,144.3574 L327.4688,144.7031 Q327.4688,145.0898 327.7852,145.3477 Q328.1016,145.6055 328.6641,145.6055 Q328.998,145.6055 329.2324,145.5293 Q329.3672,145.4883 329.5195,145.3535 Q329.6191,145.2773 329.6719,145.2539 Q329.7246,145.2305 329.7891,145.2305 Q329.9121,145.2305 330.0029,145.3271 Q330.0938,145.4238 330.0938,145.5586 Q330.0938,145.6875 329.9648,145.8398 Q329.7773,146.0625 329.4785,146.1855 Q329.0859,146.3555 328.6055,146.3555 Q328.043,146.3555 327.5918,146.1328 Q327.2285,145.957 326.9736,145.5762 Q326.7188,145.1953 326.7188,144.7441 L326.7188,144.334 Q326.7188,143.8652 326.9443,143.4551 Q327.1699,143.0449 327.5654,142.8252 Q327.9609,142.6055 328.4063,142.6055 Q328.6758,142.6055 328.9102,142.6992 Q329.1445,142.793 329.3438,142.9805 Z "/><text fill="#000000" font-family="sans-serif" font-size="4.5" lengthAdjust="spacingAndGlyphs" textLength="28.875" x="335.5313" y="146.1343">PowerupDeck</text><line style="stroke: #A80036; stroke-width: 0.5625;" x1="315.75" x2="372.75" y1="150.293" y2="150.293"/><rect fill="none" height="2.25" style="stroke: #C82930; stroke-width: 0.375;" width="2.25" x="318.375" y="153.8247"/><text fill="#000000" font-family="sans-serif" font-size="4.125" lengthAdjust="spacingAndGlyphs" textLength="48" x="322.875" y="156.0751">deck : List&lt;PowerupCard&gt;</text><line style="stroke: #A80036; stroke-width: 0.5625;" x1="315.75" x2="372.75" y1="158.4814" y2="158.4814"/><ellipse cx="319.5" cy="163.1382" fill="#84BE84" rx="1.125" ry="1.125" style="stroke: #038048; stroke-width: 0.375;"/><text fill="#000000" font-family="sans-serif" font-size="4.125" lengthAdjust="spacingAndGlyphs" textLength="28.5" x="322.875" y="164.2635">PowerupDeck()</text><ellipse cx="319.5" cy="168.3267" fill="#84BE84" rx="1.125" ry="1.125" style="stroke: #038048; stroke-width: 0.375;"/><text fill="#000000" font-family="sans-serif" font-size="4.125" lengthAdjust="spacingAndGlyphs" textLength="20.625" x="322.875" y="169.452">cardsLeft()</text><ellipse cx="319.5" cy="173.5151" fill="#84BE84" rx="1.125" ry="1.125" style="stroke: #038048; stroke-width: 0.375;"/><text fill="#000000" font-family="sans-serif" font-size="4.125" lengthAdjust="spacingAndGlyphs" textLength="21.375" x="322.875" y="174.6405">drawCard()</text><!--class it.polimi.ingsw.server.model.cards.WeaponCard--><rect fill="#FEFECE" filter="url(#f1nnif885ei89x)" height="59.5078" id="it.polimi.ingsw.server.model.cards.WeaponCard" style="stroke: #A80036; stroke-width: 0.5625;" width="62.625" x="173.8125" y="127.793"/><ellipse cx="189.9" cy="133.793" fill="#ADD1B2" rx="4.125" ry="4.125" style="stroke: #A80036; stroke-width: 0.375;"/><path d="M190.65,132.4805 Q190.7262,132.293 190.8141,132.1992 Q190.902,132.1055 191.0016,132.1055 Q191.1773,132.1055 191.2887,132.2109 Q191.4,132.3164 191.4,132.5625 L191.4,133.1484 Q191.4,133.3945 191.2945,133.5 Q191.1891,133.6055 191.025,133.6055 Q190.8785,133.6055 190.7848,133.541 Q190.691,133.4766 190.65,133.3066 Q190.6324,133.1895 190.568,133.125 Q190.4508,133.002 190.2398,132.9287 Q190.0289,132.8555 189.818,132.8555 Q189.5543,132.8555 189.3346,132.9609 Q189.1148,133.0664 188.9449,133.3008 Q188.775,133.5352 188.775,133.8574 L188.775,134.2031 Q188.775,134.5898 189.0914,134.8477 Q189.4078,135.1055 189.9703,135.1055 Q190.3043,135.1055 190.5387,135.0293 Q190.6734,134.9883 190.8258,134.8535 Q190.9254,134.7773 190.9781,134.7539 Q191.0309,134.7305 191.0953,134.7305 Q191.2184,134.7305 191.3092,134.8271 Q191.4,134.9238 191.4,135.0586 Q191.4,135.1875 191.2711,135.3398 Q191.0836,135.5625 190.7848,135.6855 Q190.3922,135.8555 189.9117,135.8555 Q189.3492,135.8555 188.898,135.6328 Q188.5348,135.457 188.2799,135.0762 Q188.025,134.6953 188.025,134.2441 L188.025,133.834 Q188.025,133.3652 188.2506,132.9551 Q188.4762,132.5449 188.8717,132.3252 Q189.2672,132.1055 189.7125,132.1055 Q189.982,132.1055 190.2164,132.1992 Q190.4508,132.293 190.65,132.4805 Z "/><text fill="#000000" font-family="sans-serif" font-size="4.5" lengthAdjust="spacingAndGlyphs" textLength="27.375" x="197.475" y="135.6343">WeaponCard</text><line style="stroke: #A80036; stroke-width: 0.5625;" x1="174.1875" x2="236.0625" y1="139.793" y2="139.793"/><rect fill="none" height="2.25" style="stroke: #C82930; stroke-width: 0.375;" width="2.25" x="176.8125" y="143.3247"/><text fill="#000000" font-family="sans-serif" font-size="4.125" lengthAdjust="spacingAndGlyphs" textLength="34.125" x="181.3125" y="145.5751">cost : AmmoCube[]</text><rect fill="none" height="2.25" style="stroke: #C82930; stroke-width: 0.375;" width="2.25" x="176.8125" y="148.5132"/><text fill="#000000" font-family="sans-serif" font-size="4.125" lengthAdjust="spacingAndGlyphs" textLength="52.875" x="181.3125" y="150.7635">effectIdSequences : String[][]</text><rect fill="none" height="2.25" style="stroke: #C82930; stroke-width: 0.375;" width="2.25" x="176.8125" y="153.7017"/><text fill="#000000" font-family="sans-serif" font-size="4.125" lengthAdjust="spacingAndGlyphs" textLength="52.5" x="181.3125" y="155.952">onlySpecifiedOrder : boolean</text><line style="stroke: #A80036; stroke-width: 0.5625;" x1="174.1875" x2="236.0625" y1="158.3584" y2="158.3584"/><ellipse cx="177.9375" cy="163.0151" fill="#84BE84" rx="1.125" ry="1.125" style="stroke: #038048; stroke-width: 0.375;"/><text fill="#000000" font-family="sans-serif" font-size="4.125" lengthAdjust="spacingAndGlyphs" textLength="26.625" x="181.3125" y="164.1405">WeaponCard()</text><ellipse cx="177.9375" cy="168.2036" fill="#84BE84" rx="1.125" ry="1.125" style="stroke: #038048; stroke-width: 0.375;"/><text fill="#000000" font-family="sans-serif" font-size="4.125" lengthAdjust="spacingAndGlyphs" textLength="16.875" x="181.3125" y="169.329">getCost()</text><ellipse cx="177.9375" cy="173.3921" fill="#84BE84" rx="1.125" ry="1.125" style="stroke: #038048; stroke-width: 0.375;"/><text fill="#000000" font-family="sans-serif" font-size="4.125" lengthAdjust="spacingAndGlyphs" textLength="44.25" x="181.3125" y="174.5175">getPossibleSequences()</text><ellipse cx="177.9375" cy="178.5806" fill="#84BE84" rx="1.125" ry="1.125" style="stroke: #038048; stroke-width: 0.375;"/><text fill="#000000" font-family="sans-serif" font-size="4.125" lengthAdjust="spacingAndGlyphs" textLength="30" x="181.3125" y="179.7059">runPermutation()</text><rect fill="#F24D5C" height="2.25" style="stroke: #C82930; stroke-width: 0.375;" width="2.25" x="176.8125" y="182.644"/><text fill="#000000" font-family="sans-serif" font-size="4.125" lengthAdjust="spacingAndGlyphs" textLength="26.25" x="181.3125" y="184.8944">permutations()</text><!--class it.polimi.ingsw.server.model.cards.WeaponDeck--><rect fill="#FEFECE" filter="url(#f1nnif885ei89x)" height="38.7539" id="it.polimi.ingsw.server.model.cards.WeaponDeck" style="stroke: #A80036; stroke-width: 0.5625;" width="56.25" x="386.25" y="138.293"/><ellipse cx="399.3" cy="144.293" fill="#ADD1B2" rx="4.125" ry="4.125" style="stroke: #A80036; stroke-width: 0.375;"/><path d="M400.05,142.9805 Q400.1262,142.793 400.2141,142.6992 Q400.302,142.6055 400.4016,142.6055 Q400.5773,142.6055 400.6887,142.7109 Q400.8,142.8164 400.8,143.0625 L400.8,143.6484 Q400.8,143.8945 400.6945,144 Q400.5891,144.1055 400.425,144.1055 Q400.2785,144.1055 400.1848,144.041 Q400.091,143.9766 400.05,143.8066 Q400.0324,143.6895 399.968,143.625 Q399.8508,143.502 399.6398,143.4287 Q399.4289,143.3555 399.218,143.3555 Q398.9543,143.3555 398.7346,143.4609 Q398.5148,143.5664 398.3449,143.8008 Q398.175,144.0352 398.175,144.3574 L398.175,144.7031 Q398.175,145.0898 398.4914,145.3477 Q398.8078,145.6055 399.3703,145.6055 Q399.7043,145.6055 399.9387,145.5293 Q400.0734,145.4883 400.2258,145.3535 Q400.3254,145.2773 400.3781,145.2539 Q400.4309,145.2305 400.4953,145.2305 Q400.6184,145.2305 400.7092,145.3271 Q400.8,145.4238 400.8,145.5586 Q400.8,145.6875 400.6711,145.8398 Q400.4836,146.0625 400.1848,146.1855 Q399.7922,146.3555 399.3117,146.3555 Q398.7492,146.3555 398.298,146.1328 Q397.9348,145.957 397.6799,145.5762 Q397.425,145.1953 397.425,144.7441 L397.425,144.334 Q397.425,143.8652 397.6506,143.4551 Q397.8762,143.0449 398.2717,142.8252 Q398.6672,142.6055 399.1125,142.6055 Q399.382,142.6055 399.6164,142.6992 Q399.8508,142.793 400.05,142.9805 Z "/><text fill="#000000" font-family="sans-serif" font-size="4.5" lengthAdjust="spacingAndGlyphs" textLength="27.75" x="406.2" y="146.1343">WeaponDeck</text><line style="stroke: #A80036; stroke-width: 0.5625;" x1="386.625" x2="442.125" y1="150.293" y2="150.293"/><rect fill="none" height="2.25" style="stroke: #C82930; stroke-width: 0.375;" width="2.25" x="389.25" y="153.8247"/><text fill="#000000" font-family="sans-serif" font-size="4.125" lengthAdjust="spacingAndGlyphs" textLength="46.5" x="393.75" y="156.0751">deck : List&lt;WeaponCard&gt;</text><line style="stroke: #A80036; stroke-width: 0.5625;" x1="386.625" x2="442.125" y1="158.4814" y2="158.4814"/><ellipse cx="390.375" cy="163.1382" fill="#84BE84" rx="1.125" ry="1.125" style="stroke: #038048; stroke-width: 0.375;"/><text fill="#000000" font-family="sans-serif" font-size="4.125" lengthAdjust="spacingAndGlyphs" textLength="27" x="393.75" y="164.2635">WeaponDeck()</text><ellipse cx="390.375" cy="168.3267" fill="#84BE84" rx="1.125" ry="1.125" style="stroke: #038048; stroke-width: 0.375;"/><text fill="#000000" font-family="sans-serif" font-size="4.125" lengthAdjust="spacingAndGlyphs" textLength="20.625" x="393.75" y="169.452">cardsLeft()</text><ellipse cx="390.375" cy="173.5151" fill="#84BE84" rx="1.125" ry="1.125" style="stroke: #038048; stroke-width: 0.375;"/><text fill="#000000" font-family="sans-serif" font-size="4.125" lengthAdjust="spacingAndGlyphs" textLength="21.375" x="393.75" y="174.6405">drawCard()</text><!--class it.polimi.ingsw.server.model.board.GameBoard--><rect fill="#FEFECE" filter="url(#f1nnif885ei89x)" height="18" id="it.polimi.ingsw.server.model.board.GameBoard" style="stroke: #A80036; stroke-width: 0.5625;" width="37.125" x="472.6875" y="230.7305"/><ellipse cx="478.3125" cy="236.7305" fill="#ADD1B2" rx="4.125" ry="4.125" style="stroke: #A80036; stroke-width: 0.375;"/><path d="M479.0625,235.418 Q479.1387,235.2305 479.2266,235.1367 Q479.3145,235.043 479.4141,235.043 Q479.5898,235.043 479.7012,235.1484 Q479.8125,235.2539 479.8125,235.5 L479.8125,236.0859 Q479.8125,236.332 479.707,236.4375 Q479.6016,236.543 479.4375,236.543 Q479.291,236.543 479.1973,236.4785 Q479.1035,236.4141 479.0625,236.2441 Q479.0449,236.127 478.9805,236.0625 Q478.8633,235.9395 478.6523,235.8662 Q478.4414,235.793 478.2305,235.793 Q477.9668,235.793 477.7471,235.8984 Q477.5273,236.0039 477.3574,236.2383 Q477.1875,236.4727 477.1875,236.7949 L477.1875,237.1406 Q477.1875,237.5273 477.5039,237.7852 Q477.8203,238.043 478.3828,238.043 Q478.7168,238.043 478.9512,237.9668 Q479.0859,237.9258 479.2383,237.791 Q479.3379,237.7148 479.3906,237.6914 Q479.4434,237.668 479.5078,237.668 Q479.6309,237.668 479.7217,237.7646 Q479.8125,237.8613 479.8125,237.9961 Q479.8125,238.125 479.6836,238.2773 Q479.4961,238.5 479.1973,238.623 Q478.8047,238.793 478.3242,238.793 Q477.7617,238.793 477.3105,238.5703 Q476.9473,238.3945 476.6924,238.0137 Q476.4375,237.6328 476.4375,237.1816 L476.4375,236.7715 Q476.4375,236.3027 476.6631,235.8926 Q476.8887,235.4824 477.2842,235.2627 Q477.6797,235.043 478.125,235.043 Q478.3945,235.043 478.6289,235.1367 Q478.8633,235.2305 479.0625,235.418 Z "/><text fill="#000000" font-family="sans-serif" font-size="4.5" lengthAdjust="spacingAndGlyphs" textLength="25.125" x="483.5625" y="238.5718">GameBoard</text><line style="stroke: #A80036; stroke-width: 0.5625;" x1="473.0625" x2="509.4375" y1="242.7305" y2="242.7305"/><line style="stroke: #A80036; stroke-width: 0.5625;" x1="473.0625" x2="509.4375" y1="245.7305" y2="245.7305"/><!--link it.polimi.ingsw.server.model.cards.AbstractCard to it.polimi.ingsw.server.model.cards.AmmoCard--><path d="M95.2425,104.3562 C89.2391,110.3165 82.9639,116.6798 77.25,122.7305 C73.4145,126.7917 69.4054,131.2115 65.6048,135.4902 " fill="none" id="it.polimi.ingsw.server.model.cards.AbstractCard-it.polimi.ingsw.server.model.cards.AmmoCard" style="stroke: #A80036; stroke-width: 0.375;"/><polygon fill="none" points="93.4729,102.4148,100.6553,99.0162,97.1599,106.1521,93.4729,102.4148" style="stroke: #A80036; stroke-width: 0.375;"/><!--link it.polimi.ingsw.server.model.cards.AbstractDeck to it.polimi.ingsw.server.model.cards.AmmoDeck--><path d="M327.2449,97.961 C316.5938,110.2797 302.94,126.0717 292.4048,138.2566 " fill="none" id="it.polimi.ingsw.server.model.cards.AbstractDeck-it.polimi.ingsw.server.model.cards.AmmoDeck" style="stroke: #A80036; stroke-width: 0.375; stroke-dasharray: 7.0,7.0;"/><polygon fill="none" points="325.3144,96.1805,332.2054,92.2238,329.2856,99.614,325.3144,96.1805" style="stroke: #A80036; stroke-width: 0.375;"/><!--link it.polimi.ingsw.server.model.cards.AmmoDeck to it.polimi.ingsw.server.model.board.GameBoard--><path d="M288.5606,181.0385 C293.8736,188.7125 300.7594,196.5515 309,201.4805 C314.973,205.0531 363.9469,210.5671 370.875,211.2305 C380.4638,212.1485 448.41,211.0433 457.5,214.2305 C467.1488,217.6145 476.34,224.8116 482.685,230.6389 " fill="none" id="it.polimi.ingsw.server.model.cards.AmmoDeck-it.polimi.ingsw.server.model.board.GameBoard" style="stroke: #A80036; stroke-width: 0.375;"/><polygon fill="#FFFFFF" points="285.8494,176.9345,285.8378,179.6386,288.3294,180.6894,288.341,177.9852,285.8494,176.9345" style="stroke: #A80036; stroke-width: 0.375;"/><text fill="#000000" font-family="sans-serif" font-size="4.875" lengthAdjust="spacingAndGlyphs" textLength="12" x="371.25" y="209.9161">board</text><!--link it.polimi.ingsw.server.model.cards.AbstractCard to it.polimi.ingsw.server.model.cards.PowerupCard--><path d="M122.25,107.4038 C122.25,112.3568 122.25,117.5438 122.25,122.6217 " fill="none" id="it.polimi.ingsw.server.model.cards.AbstractCard-it.polimi.ingsw.server.model.cards.PowerupCard" style="stroke: #A80036; stroke-width: 0.375;"/><polygon fill="none" points="119.625,107.363,122.25,99.863,124.875,107.363,119.625,107.363" style="stroke: #A80036; stroke-width: 0.375;"/><!--link it.polimi.ingsw.server.model.cards.PowerupCard to it.polimi.ingsw.server.model.AmmoCube--><path d="M122.25,197.4552 C122.25,209.9697 122.25,222.6372 122.25,230.7167 " fill="none" id="it.polimi.ingsw.server.model.cards.PowerupCard-it.polimi.ingsw.server.model.AmmoCube" style="stroke: #A80036; stroke-width: 0.375;"/><polygon fill="#FFFFFF" points="122.25,192.491,120.75,194.741,122.25,196.991,123.75,194.741,122.25,192.491" style="stroke: #A80036; stroke-width: 0.375;"/><text fill="#000000" font-family="sans-serif" font-size="4.875" lengthAdjust="spacingAndGlyphs" textLength="10.5" x="122.625" y="209.9161">cube</text><!--link it.polimi.ingsw.server.model.cards.AbstractDeck to it.polimi.ingsw.server.model.cards.PowerupDeck--><path d="M344.25,99.8341 C344.25,111.8498 344.25,126.6811 344.25,138.2566 " fill="none" id="it.polimi.ingsw.server.model.cards.AbstractDeck-it.polimi.ingsw.server.model.cards.PowerupDeck" style="stroke: #A80036; stroke-width: 0.375; stroke-dasharray: 7.0,7.0;"/><polygon fill="none" points="341.625,99.7238,344.25,92.2238,346.875,99.7238,341.625,99.7238" style="stroke: #A80036; stroke-width: 0.375;"/><!--link it.polimi.ingsw.server.model.cards.PowerupDeck to it.polimi.ingsw.server.model.board.GameBoard--><path d="M358.095,180.9147 C363.8805,188.621 371.2729,196.5128 379.875,201.4805 C410.1525,218.9645 425.3175,200.5715 457.5,214.2305 C466.7138,218.1402 475.7288,225.0609 482.1225,230.6501 " fill="none" id="it.polimi.ingsw.server.model.cards.PowerupDeck-it.polimi.ingsw.server.model.board.GameBoard" style="stroke: #A80036; stroke-width: 0.375;"/><polygon fill="#FFFFFF" points="355.2184,176.9183,355.3155,179.6208,357.8474,180.5705,357.7503,177.8681,355.2184,176.9183" style="stroke: #A80036; stroke-width: 0.375;"/><text fill="#000000" font-family="sans-serif" font-size="4.875" lengthAdjust="spacingAndGlyphs" textLength="12" x="448.5" y="209.9161">board</text><!--link it.polimi.ingsw.server.model.cards.AbstractCard to it.polimi.ingsw.server.model.cards.WeaponCard--><path d="M149.3726,104.1271 C157.2686,111.6481 165.9555,119.9221 174.0739,127.6546 " fill="none" id="it.polimi.ingsw.server.model.cards.AbstractCard-it.polimi.ingsw.server.model.cards.WeaponCard" style="stroke: #A80036; stroke-width: 0.375;"/><polygon fill="none" points="147.5366,106.0032,143.916,98.9296,151.1573,102.2018,147.5366,106.0032" style="stroke: #A80036; stroke-width: 0.375;"/><!--link it.polimi.ingsw.server.model.cards.AbstractDeck to it.polimi.ingsw.server.model.cards.WeaponDeck--><path d="M361.7224,97.961 C372.666,110.2797 386.6963,126.0717 397.5187,138.2566 " fill="none" id="it.polimi.ingsw.server.model.cards.AbstractDeck-it.polimi.ingsw.server.model.cards.WeaponDeck" style="stroke: #A80036; stroke-width: 0.375; stroke-dasharray: 7.0,7.0;"/><polygon fill="none" points="359.6441,99.5742,356.6254,92.2238,363.5693,96.0875,359.6441,99.5742" style="stroke: #A80036; stroke-width: 0.375;"/><text fill="#888888" font-family="sans-serif" font-size="3.75" lengthAdjust="spacingAndGlyphs" textLength="0" x="576.375" y="268.3733"/><text fill="#888888" font-family="sans-serif" font-size="3.75" lengthAdjust="spacingAndGlyphs" textLength="0" x="576.375" y="273.0901"/><text fill="#888888" font-family="sans-serif" font-size="3.75" lengthAdjust="spacingAndGlyphs" textLength="147" x="429.375" y="277.8069">PlantUML diagram generated by SketchIt! (https://bitbucket.org/pmesmeur/sketch.it)</text><text fill="#888888" font-family="sans-serif" font-size="3.75" lengthAdjust="spacingAndGlyphs" textLength="147.75" x="428.625" y="282.5237">For more information about this tool, please contact philippe.mesmeur@gmail.com</text><!--
@startuml

title __SERVER MODEL's Class Diagram__\n

  namespace it.polimi.ingsw.server.model {
    namespace cards {
      abstract class it.polimi.ingsw.server.model.cards.AbstractCard {
          - resourceId : String
          + equals()
          + getId()
          + hashCode()
          ~ AbstractCard()
      }
    }
  }


  namespace it.polimi.ingsw.server.model {
    namespace cards {
      interface it.polimi.ingsw.server.model.cards.AbstractDeck {
          {abstract} + cardsLeft()
          {abstract} + drawCard()
      }
    }
  }


  namespace it.polimi.ingsw.server.model {
    namespace cards {
      class it.polimi.ingsw.server.model.cards.AmmoCard {
          - cubes : AmmoCube[]
          - powerup : boolean
          + AmmoCard()
          + getCubes()
          + hasPowerup()
      }
    }
  }


  namespace it.polimi.ingsw.server.model {
    namespace cards {
      class it.polimi.ingsw.server.model.cards.AmmoDeck {
          - deck : List<AmmoCard>
          + AmmoDeck()
          + cardsLeft()
          + drawCard()
      }
    }
  }


  namespace it.polimi.ingsw.server.model {
    namespace cards {
      class it.polimi.ingsw.server.model.cards.PowerupCard {
          - effectId : String
          - usableAsAction : boolean
          - usableOnDealingDamage : boolean
          - usableOnReceivingDamage : boolean
          + PowerupCard()
          + getCube()
          + getEffect()
          + isUsableAsAction()
          + isUsableOnDealingDamage()
          + isUsableOnReceivingDamage()
      }
    }
  }


  namespace it.polimi.ingsw.server.model {
    namespace cards {
      class it.polimi.ingsw.server.model.cards.PowerupDeck {
          - deck : List<PowerupCard>
          + PowerupDeck()
          + cardsLeft()
          + drawCard()
      }
    }
  }


  namespace it.polimi.ingsw.server.model {
    namespace cards {
      class it.polimi.ingsw.server.model.cards.WeaponCard {
          - cost : AmmoCube[]
          - effectIdSequences : String[][]
          - onlySpecifiedOrder : boolean
          + WeaponCard()
          + getCost()
          + getPossibleSequences()
          + runPermutation()
          - permutations()
      }
    }
  }


  namespace it.polimi.ingsw.server.model {
    namespace cards {
      class it.polimi.ingsw.server.model.cards.WeaponDeck {
          - deck : List<WeaponCard>
          + WeaponDeck()
          + cardsLeft()
          + drawCard()
      }
    }
  }


  it.polimi.ingsw.server.model.cards.AmmoCard -up-|> it.polimi.ingsw.server.model.cards.AbstractCard
  it.polimi.ingsw.server.model.cards.AmmoDeck .up.|> it.polimi.ingsw.server.model.cards.AbstractDeck
  it.polimi.ingsw.server.model.cards.AmmoDeck o- - it.polimi.ingsw.server.model.board.GameBoard : board
  it.polimi.ingsw.server.model.cards.PowerupCard -up-|> it.polimi.ingsw.server.model.cards.AbstractCard
  it.polimi.ingsw.server.model.cards.PowerupCard o- - it.polimi.ingsw.server.model.AmmoCube : cube
  it.polimi.ingsw.server.model.cards.PowerupDeck .up.|> it.polimi.ingsw.server.model.cards.AbstractDeck
  it.polimi.ingsw.server.model.cards.PowerupDeck o- - it.polimi.ingsw.server.model.board.GameBoard : board
  it.polimi.ingsw.server.model.cards.WeaponCard -up-|> it.polimi.ingsw.server.model.cards.AbstractCard
  it.polimi.ingsw.server.model.cards.WeaponDeck .up.|> it.polimi.ingsw.server.model.cards.AbstractDeck


right footer


PlantUML diagram generated by SketchIt! (https://bitbucket.org/pmesmeur/sketch.it)
For more information about this tool, please contact philippe.mesmeur@gmail.com
endfooter

@enduml

PlantUML version 1.2019.05(Sat Apr 20 18:45:36 CEST 2019)
(GPL source distribution)
Java Runtime: OpenJDK Runtime Environment
JVM: OpenJDK 64-Bit Server VM
Java Version: 1.8.0_202-release-1483-b58
Operating System: Windows 10
OS Version: 10.0
Default Encoding: Cp1252
Language: it
Country: IT
--></g></svg>