<?xml version="1.0" encoding="UTF-8" standalone="no"?><svg xmlns="http://www.w3.org/2000/svg" xmlns:xlink="http://www.w3.org/1999/xlink" contentScriptType="application/ecmascript" contentStyleType="text/css" height="255.75px" preserveAspectRatio="none" style="width:391px;height:255px;" version="1.1" viewBox="0 0 391 255" width="391.125px" zoomAndPan="magnify"><defs><filter height="300%" id="f16kv5bhpw5o7k" width="300%" x="-1" y="-1"><feGaussianBlur result="blurOut" stdDeviation="0.75"/><feColorMatrix in="blurOut" result="blurOut2" type="matrix" values="0 0 0 0 0 0 0 0 0 0 0 0 0 0 0 0 0 0 .4 0"/><feOffset dx="1.5" dy="1.5" in="blurOut2" result="blurOut3"/><feBlend in="SourceGraphic" in2="blurOut3" mode="normal"/></filter></defs><g><text fill="#000000" font-family="sans-serif" font-size="6.75" lengthAdjust="spacingAndGlyphs" text-decoration="underline" textLength="127.125" x="129.75" y="7.0071">SERVER PERSISTENCY's Class Diagram</text><text fill="#000000" font-family="sans-serif" font-size="6.75" lengthAdjust="spacingAndGlyphs" textLength="0" x="194.25" y="15.4973"/><!--cluster it.polimi.ingsw.server.persistency--><polygon fill="#FFFFFF" filter="url(#f16kv5bhpw5o7k)" points="8.25,25.9805,99.375,25.9805,102,34.834,373.875,34.834,373.875,223.2305,8.25,223.2305,8.25,25.9805" style="stroke: #000000; stroke-width: 0.5625;"/><line style="stroke: #000000; stroke-width: 0.5625;" x1="8.25" x2="102" y1="34.834" y2="34.834"/><text fill="#000000" font-family="sans-serif" font-size="5.25" font-weight="bold" lengthAdjust="spacingAndGlyphs" textLength="88.875" x="9.75" y="32.1804">it.polimi.ingsw.server.persistency</text><!--class it.polimi.ingsw.server.persistency.AmmoCardLoader--><rect fill="#FEFECE" filter="url(#f16kv5bhpw5o7k)" height="43.9424" id="it.polimi.ingsw.server.persistency.AmmoCardLoader" style="stroke: #A80036; stroke-width: 0.5625;" width="56.625" x="14.4375" y="170.7305"/><ellipse cx="22.9313" cy="176.7305" fill="#ADD1B2" rx="4.125" ry="4.125" style="stroke: #A80036; stroke-width: 0.375;"/><path d="M23.6813,175.418 Q23.7574,175.2305 23.8453,175.1367 Q23.9332,175.043 24.0328,175.043 Q24.2086,175.043 24.3199,175.1484 Q24.4313,175.2539 24.4313,175.5 L24.4313,176.0859 Q24.4313,176.332 24.3258,176.4375 Q24.2203,176.543 24.0563,176.543 Q23.9098,176.543 23.816,176.4785 Q23.7223,176.4141 23.6813,176.2441 Q23.6637,176.127 23.5992,176.0625 Q23.482,175.9395 23.2711,175.8662 Q23.0602,175.793 22.8492,175.793 Q22.5855,175.793 22.3658,175.8984 Q22.1461,176.0039 21.9762,176.2383 Q21.8063,176.4727 21.8063,176.7949 L21.8063,177.1406 Q21.8063,177.5273 22.1227,177.7852 Q22.4391,178.043 23.0016,178.043 Q23.3355,178.043 23.5699,177.9668 Q23.7047,177.9258 23.857,177.791 Q23.9566,177.7148 24.0094,177.6914 Q24.0621,177.668 24.1266,177.668 Q24.2496,177.668 24.3404,177.7646 Q24.4313,177.8613 24.4313,177.9961 Q24.4313,178.125 24.3023,178.2773 Q24.1148,178.5 23.816,178.623 Q23.4234,178.793 22.943,178.793 Q22.3805,178.793 21.9293,178.5703 Q21.566,178.3945 21.3111,178.0137 Q21.0563,177.6328 21.0563,177.1816 L21.0563,176.7715 Q21.0563,176.3027 21.2818,175.8926 Q21.5074,175.4824 21.9029,175.2627 Q22.2984,175.043 22.7438,175.043 Q23.0133,175.043 23.2477,175.1367 Q23.482,175.2305 23.6813,175.418 Z "/><text fill="#000000" font-family="sans-serif" font-size="4.5" lengthAdjust="spacingAndGlyphs" textLength="38.25" x="28.8187" y="178.5718">AmmoCardLoader</text><line style="stroke: #A80036; stroke-width: 0.5625;" x1="14.8125" x2="70.6875" y1="182.7305" y2="182.7305"/><rect fill="none" height="2.25" style="stroke: #C82930; stroke-width: 0.375;" width="2.25" x="17.4375" y="186.2622"/><text fill="#000000" font-family="sans-serif" font-size="4.125" lengthAdjust="spacingAndGlyphs" textLength="46.875" x="21.9375" y="188.5126">ammoCards : AmmoCard[]</text><line style="stroke: #A80036; stroke-width: 0.5625;" x1="14.8125" x2="70.6875" y1="190.9189" y2="190.9189"/><ellipse cx="18.5625" cy="195.5757" fill="#84BE84" rx="1.125" ry="1.125" style="stroke: #038048; stroke-width: 0.375;"/><text fill="#000000" font-family="sans-serif" font-size="4.125" lengthAdjust="spacingAndGlyphs" textLength="8.625" x="21.9375" y="196.701">get()</text><ellipse cx="18.5625" cy="200.7642" fill="#84BE84" rx="1.125" ry="1.125" style="stroke: #038048; stroke-width: 0.375;"/><text fill="#000000" font-family="sans-serif" font-size="4.125" lengthAdjust="spacingAndGlyphs" textLength="13.125" x="21.9375" y="201.8895">getAll()</text><ellipse cx="18.5625" cy="205.9526" fill="#84BE84" rx="1.125" ry="1.125" style="stroke: #038048; stroke-width: 0.375;"/><text fill="#000000" font-family="sans-serif" font-size="4.125" lengthAdjust="spacingAndGlyphs" textLength="13.125" x="21.9375" y="207.078">getAll()</text><polygon fill="#4177AF" points="18.5625,209.6411,17.0625,211.8911,20.0625,211.8911" style="stroke: #1963A0; stroke-width: 0.375;"/><text fill="#000000" font-family="sans-serif" font-size="4.125" lengthAdjust="spacingAndGlyphs" textLength="35.625" x="21.9375" y="212.2665">AmmoCardLoader()</text><!--class it.polimi.ingsw.server.persistency.BasicLoader--><rect fill="#FEFECE" filter="url(#f16kv5bhpw5o7k)" height="33.5654" id="it.polimi.ingsw.server.persistency.BasicLoader" style="stroke: #A80036; stroke-width: 0.5625;" width="37.875" x="181.3125" y="75.668"/><ellipse cx="186.9375" cy="81.668" fill="#B4A7E5" rx="4.125" ry="4.125" style="stroke: #A80036; stroke-width: 0.375;"/><path d="M187.3125,80.543 L187.3125,82.793 L188.0625,82.793 L188.2441,82.793 L188.4375,83.0273 L188.4375,83.168 L188.4375,83.3086 L188.2441,83.543 L188.0625,83.543 L185.8125,83.543 L185.6309,83.543 L185.4375,83.3086 L185.4375,83.168 L185.4375,83.0273 L185.6309,82.793 L185.8125,82.793 L186.5625,82.793 L186.5625,80.543 L185.8125,80.543 L185.6309,80.543 L185.4375,80.3086 L185.4375,80.168 L185.4375,80.0273 L185.6309,79.793 L185.8125,79.793 L188.0625,79.793 L188.2441,79.793 L188.4375,80.0273 L188.4375,80.168 L188.4375,80.3086 L188.2441,80.543 L188.0625,80.543 L187.3125,80.543 Z "/><text fill="#000000" font-family="sans-serif" font-size="4.5" font-style="italic" lengthAdjust="spacingAndGlyphs" textLength="25.875" x="192.1875" y="83.5093">BasicLoader</text><line style="stroke: #A80036; stroke-width: 0.5625;" x1="181.6875" x2="218.8125" y1="87.668" y2="87.668"/><line style="stroke: #A80036; stroke-width: 0.5625;" x1="181.6875" x2="218.8125" y1="90.668" y2="90.668"/><ellipse cx="185.4375" cy="95.3247" fill="#84BE84" rx="1.125" ry="1.125" style="stroke: #038048; stroke-width: 0.375;"/><text fill="#000000" font-family="sans-serif" font-size="4.125" font-style="italic" lengthAdjust="spacingAndGlyphs" textLength="8.625" x="188.8125" y="96.4501">get()</text><ellipse cx="185.4375" cy="100.5132" fill="#84BE84" rx="1.125" ry="1.125" style="stroke: #038048; stroke-width: 0.375;"/><text fill="#000000" font-family="sans-serif" font-size="4.125" font-style="italic" lengthAdjust="spacingAndGlyphs" textLength="13.5" x="188.8125" y="101.6385">getAll()</text><ellipse cx="185.4375" cy="105.7017" fill="#84BE84" rx="1.125" ry="1.125" style="stroke: #038048; stroke-width: 0.375;"/><text fill="#000000" font-family="sans-serif" font-size="4.125" font-style="italic" lengthAdjust="spacingAndGlyphs" textLength="13.5" x="188.8125" y="106.827">getAll()</text><!--class it.polimi.ingsw.server.persistency.EffectLoader--><rect fill="#FEFECE" filter="url(#f16kv5bhpw5o7k)" height="49.1309" id="it.polimi.ingsw.server.persistency.EffectLoader" style="stroke: #A80036; stroke-width: 0.5625;" width="73.5" x="84.375" y="168.1055"/><ellipse cx="106.5938" cy="174.1055" fill="#ADD1B2" rx="4.125" ry="4.125" style="stroke: #A80036; stroke-width: 0.375;"/><path d="M107.3438,172.793 Q107.4199,172.6055 107.5078,172.5117 Q107.5957,172.418 107.6953,172.418 Q107.8711,172.418 107.9824,172.5234 Q108.0938,172.6289 108.0938,172.875 L108.0938,173.4609 Q108.0938,173.707 107.9883,173.8125 Q107.8828,173.918 107.7188,173.918 Q107.5723,173.918 107.4785,173.8535 Q107.3848,173.7891 107.3438,173.6191 Q107.3262,173.502 107.2617,173.4375 Q107.1445,173.3145 106.9336,173.2412 Q106.7227,173.168 106.5117,173.168 Q106.248,173.168 106.0283,173.2734 Q105.8086,173.3789 105.6387,173.6133 Q105.4688,173.8477 105.4688,174.1699 L105.4688,174.5156 Q105.4688,174.9023 105.7852,175.1602 Q106.1016,175.418 106.6641,175.418 Q106.998,175.418 107.2324,175.3418 Q107.3672,175.3008 107.5195,175.166 Q107.6191,175.0898 107.6719,175.0664 Q107.7246,175.043 107.7891,175.043 Q107.9121,175.043 108.0029,175.1396 Q108.0938,175.2363 108.0938,175.3711 Q108.0938,175.5 107.9648,175.6523 Q107.7773,175.875 107.4785,175.998 Q107.0859,176.168 106.6055,176.168 Q106.043,176.168 105.5918,175.9453 Q105.2285,175.7695 104.9736,175.3887 Q104.7188,175.0078 104.7188,174.5566 L104.7188,174.1465 Q104.7188,173.6777 104.9443,173.2676 Q105.1699,172.8574 105.5654,172.6377 Q105.9609,172.418 106.4063,172.418 Q106.6758,172.418 106.9102,172.5117 Q107.1445,172.6055 107.3438,172.793 Z "/><text fill="#000000" font-family="sans-serif" font-size="4.5" lengthAdjust="spacingAndGlyphs" textLength="25.875" x="114.2813" y="175.9468">EffectLoader</text><line style="stroke: #A80036; stroke-width: 0.5625;" x1="84.75" x2="157.5" y1="180.1055" y2="180.1055"/><rect fill="none" height="2.25" style="stroke: #C82930; stroke-width: 0.375;" width="2.25" x="87.375" y="183.6372"/><text fill="#000000" font-family="sans-serif" font-size="4.125" lengthAdjust="spacingAndGlyphs" textLength="46.5" x="91.875" y="185.8876">cardEffects : CardEffect[]</text><rect fill="none" height="2.25" style="stroke: #C82930; stroke-width: 0.375;" width="2.25" x="87.375" y="188.8257"/><text fill="#000000" font-family="sans-serif" font-size="4.125" lengthAdjust="spacingAndGlyphs" textLength="63.75" x="91.875" y="191.076">otherEffects : List&lt;EffectInterface&gt;</text><line style="stroke: #A80036; stroke-width: 0.5625;" x1="84.75" x2="157.5" y1="193.4824" y2="193.4824"/><ellipse cx="88.5" cy="198.1392" fill="#84BE84" rx="1.125" ry="1.125" style="stroke: #038048; stroke-width: 0.375;"/><text fill="#000000" font-family="sans-serif" font-size="4.125" lengthAdjust="spacingAndGlyphs" textLength="8.625" x="91.875" y="199.2645">get()</text><ellipse cx="88.5" cy="203.3276" fill="#84BE84" rx="1.125" ry="1.125" style="stroke: #038048; stroke-width: 0.375;"/><text fill="#000000" font-family="sans-serif" font-size="4.125" lengthAdjust="spacingAndGlyphs" textLength="13.125" x="91.875" y="204.453">getAll()</text><ellipse cx="88.5" cy="208.5161" fill="#84BE84" rx="1.125" ry="1.125" style="stroke: #038048; stroke-width: 0.375;"/><text fill="#000000" font-family="sans-serif" font-size="4.125" lengthAdjust="spacingAndGlyphs" textLength="13.125" x="91.875" y="209.6415">getAll()</text><polygon fill="#4177AF" points="88.5,212.2046,87,214.4546,90,214.4546" style="stroke: #1963A0; stroke-width: 0.375;"/><text fill="#000000" font-family="sans-serif" font-size="4.125" lengthAdjust="spacingAndGlyphs" textLength="26.625" x="91.875" y="214.83">EffectLoader()</text><!--class it.polimi.ingsw.server.persistency.FromFile--><rect fill="#FEFECE" filter="url(#f16kv5bhpw5o7k)" height="106.2041" id="it.polimi.ingsw.server.persistency.FromFile" style="stroke: #A80036; stroke-width: 0.5625;" width="77.625" x="90.5625" y="39.4805"/><ellipse cx="118.5938" cy="45.4805" fill="#ADD1B2" rx="4.125" ry="4.125" style="stroke: #A80036; stroke-width: 0.375;"/><path d="M119.3438,44.168 Q119.4199,43.9805 119.5078,43.8867 Q119.5957,43.793 119.6953,43.793 Q119.8711,43.793 119.9824,43.8984 Q120.0938,44.0039 120.0938,44.25 L120.0938,44.8359 Q120.0938,45.082 119.9883,45.1875 Q119.8828,45.293 119.7188,45.293 Q119.5723,45.293 119.4785,45.2285 Q119.3848,45.1641 119.3438,44.9941 Q119.3262,44.877 119.2617,44.8125 Q119.1445,44.6895 118.9336,44.6162 Q118.7227,44.543 118.5117,44.543 Q118.248,44.543 118.0283,44.6484 Q117.8086,44.7539 117.6387,44.9883 Q117.4688,45.2227 117.4688,45.5449 L117.4688,45.8906 Q117.4688,46.2773 117.7852,46.5352 Q118.1016,46.793 118.6641,46.793 Q118.998,46.793 119.2324,46.7168 Q119.3672,46.6758 119.5195,46.541 Q119.6191,46.4648 119.6719,46.4414 Q119.7246,46.418 119.7891,46.418 Q119.9121,46.418 120.0029,46.5146 Q120.0938,46.6113 120.0938,46.7461 Q120.0938,46.875 119.9648,47.0273 Q119.7773,47.25 119.4785,47.373 Q119.0859,47.543 118.6055,47.543 Q118.043,47.543 117.5918,47.3203 Q117.2285,47.1445 116.9736,46.7637 Q116.7188,46.3828 116.7188,45.9316 L116.7188,45.5215 Q116.7188,45.0527 116.9443,44.6426 Q117.1699,44.2324 117.5654,44.0127 Q117.9609,43.793 118.4063,43.793 Q118.6758,43.793 118.9102,43.8867 Q119.1445,43.9805 119.3438,44.168 Z "/><text fill="#000000" font-family="sans-serif" font-size="4.5" lengthAdjust="spacingAndGlyphs" textLength="18.375" x="126.2813" y="47.3218">FromFile</text><line style="stroke: #A80036; stroke-width: 0.5625;" x1="90.9375" x2="167.8125" y1="51.4805" y2="51.4805"/><rect fill="none" height="2.25" style="stroke: #C82930; stroke-width: 0.375;" width="2.25" x="93.5625" y="55.0122"/><text fill="#000000" font-family="sans-serif" font-size="4.125" lengthAdjust="spacingAndGlyphs" text-decoration="underline" textLength="41.625" x="98.0625" y="57.2626">AMMO_CARDS : String</text><rect fill="none" height="2.25" style="stroke: #C82930; stroke-width: 0.375;" width="2.25" x="93.5625" y="60.2007"/><text fill="#000000" font-family="sans-serif" font-size="4.125" lengthAdjust="spacingAndGlyphs" text-decoration="underline" textLength="30.375" x="98.0625" y="62.451">EFFECTS : String</text><rect fill="none" height="2.25" style="stroke: #C82930; stroke-width: 0.375;" width="2.25" x="93.5625" y="65.3892"/><text fill="#000000" font-family="sans-serif" font-size="4.125" lengthAdjust="spacingAndGlyphs" text-decoration="underline" textLength="24.75" x="98.0625" y="67.6395">MAPS : String</text><rect fill="none" height="2.25" style="stroke: #C82930; stroke-width: 0.375;" width="2.25" x="93.5625" y="70.5776"/><text fill="#000000" font-family="sans-serif" font-size="4.125" lengthAdjust="spacingAndGlyphs" text-decoration="underline" textLength="48.375" x="98.0625" y="72.828">POWERUP_CARDS : String</text><rect fill="none" height="2.25" style="stroke: #C82930; stroke-width: 0.375;" width="2.25" x="93.5625" y="75.7661"/><text fill="#000000" font-family="sans-serif" font-size="4.125" lengthAdjust="spacingAndGlyphs" text-decoration="underline" textLength="46.5" x="98.0625" y="78.0165">WEAPON_CARDS : String</text><rect fill="none" height="2.25" style="stroke: #C82930; stroke-width: 0.375;" width="2.25" x="93.5625" y="80.9546"/><text fill="#000000" font-family="sans-serif" font-size="4.125" lengthAdjust="spacingAndGlyphs" text-decoration="underline" textLength="67.875" x="98.0625" y="83.205">ammoCardLoader : AmmoCardLoader</text><rect fill="none" height="2.25" style="stroke: #C82930; stroke-width: 0.375;" width="2.25" x="93.5625" y="86.1431"/><text fill="#000000" font-family="sans-serif" font-size="4.125" lengthAdjust="spacingAndGlyphs" text-decoration="underline" textLength="50.625" x="98.0625" y="88.3934">effectLoader : EffectLoader</text><rect fill="none" height="2.25" style="stroke: #C82930; stroke-width: 0.375;" width="2.25" x="93.5625" y="91.3315"/><text fill="#000000" font-family="sans-serif" font-size="4.125" lengthAdjust="spacingAndGlyphs" text-decoration="underline" textLength="43.875" x="98.0625" y="93.5819">mapLoader : MapLoader</text><rect fill="none" height="2.25" style="stroke: #C82930; stroke-width: 0.375;" width="2.25" x="93.5625" y="96.52"/><text fill="#000000" font-family="sans-serif" font-size="4.125" lengthAdjust="spacingAndGlyphs" text-decoration="underline" textLength="61.875" x="98.0625" y="98.7704">powerupLoader : PowerupLoader</text><rect fill="none" height="2.25" style="stroke: #C82930; stroke-width: 0.375;" width="2.25" x="93.5625" y="101.7085"/><text fill="#000000" font-family="sans-serif" font-size="4.125" lengthAdjust="spacingAndGlyphs" text-decoration="underline" textLength="58.875" x="98.0625" y="103.9589">weaponLoader : WeaponLoader</text><line style="stroke: #A80036; stroke-width: 0.5625;" x1="90.9375" x2="167.8125" y1="106.3652" y2="106.3652"/><ellipse cx="94.6875" cy="111.022" fill="#84BE84" rx="1.125" ry="1.125" style="stroke: #038048; stroke-width: 0.375;"/><text fill="#000000" font-family="sans-serif" font-size="4.125" lengthAdjust="spacingAndGlyphs" text-decoration="underline" textLength="24.375" x="98.0625" y="112.1473">ammoCards()</text><ellipse cx="94.6875" cy="116.2104" fill="#84BE84" rx="1.125" ry="1.125" style="stroke: #038048; stroke-width: 0.375;"/><text fill="#000000" font-family="sans-serif" font-size="4.125" lengthAdjust="spacingAndGlyphs" text-decoration="underline" textLength="16.125" x="98.0625" y="117.3358">effects()</text><ellipse cx="94.6875" cy="121.3989" fill="#84BE84" rx="1.125" ry="1.125" style="stroke: #038048; stroke-width: 0.375;"/><text fill="#000000" font-family="sans-serif" font-size="4.125" lengthAdjust="spacingAndGlyphs" text-decoration="underline" textLength="12.75" x="98.0625" y="122.5243">maps()</text><ellipse cx="94.6875" cy="126.5874" fill="#84BE84" rx="1.125" ry="1.125" style="stroke: #038048; stroke-width: 0.375;"/><text fill="#000000" font-family="sans-serif" font-size="4.125" lengthAdjust="spacingAndGlyphs" text-decoration="underline" textLength="21.75" x="98.0625" y="127.7128">powerups()</text><ellipse cx="94.6875" cy="131.7759" fill="#84BE84" rx="1.125" ry="1.125" style="stroke: #038048; stroke-width: 0.375;"/><text fill="#000000" font-family="sans-serif" font-size="4.125" lengthAdjust="spacingAndGlyphs" text-decoration="underline" textLength="20.25" x="98.0625" y="132.9012">weapons()</text><rect fill="#F24D5C" height="2.25" style="stroke: #C82930; stroke-width: 0.375;" width="2.25" x="93.5625" y="135.8394"/><text fill="#000000" font-family="sans-serif" font-size="4.125" lengthAdjust="spacingAndGlyphs" textLength="18" x="98.0625" y="138.0897">FromFile()</text><rect fill="#F24D5C" height="2.25" style="stroke: #C82930; stroke-width: 0.375;" width="2.25" x="93.5625" y="141.0278"/><text fill="#000000" font-family="sans-serif" font-size="4.125" lengthAdjust="spacingAndGlyphs" text-decoration="underline" textLength="13.125" x="98.0625" y="143.2782">setup()</text><!--class it.polimi.ingsw.server.persistency.MapLoader--><rect fill="#FEFECE" filter="url(#f16kv5bhpw5o7k)" height="43.9424" id="it.polimi.ingsw.server.persistency.MapLoader" style="stroke: #A80036; stroke-width: 0.5625;" width="37.5" x="171" y="170.7305"/><ellipse cx="177.6375" cy="176.7305" fill="#ADD1B2" rx="4.125" ry="4.125" style="stroke: #A80036; stroke-width: 0.375;"/><path d="M178.3875,175.418 Q178.4637,175.2305 178.5516,175.1367 Q178.6395,175.043 178.7391,175.043 Q178.9148,175.043 179.0262,175.1484 Q179.1375,175.2539 179.1375,175.5 L179.1375,176.0859 Q179.1375,176.332 179.032,176.4375 Q178.9266,176.543 178.7625,176.543 Q178.616,176.543 178.5223,176.4785 Q178.4285,176.4141 178.3875,176.2441 Q178.3699,176.127 178.3055,176.0625 Q178.1883,175.9395 177.9773,175.8662 Q177.7664,175.793 177.5555,175.793 Q177.2918,175.793 177.0721,175.8984 Q176.8523,176.0039 176.6824,176.2383 Q176.5125,176.4727 176.5125,176.7949 L176.5125,177.1406 Q176.5125,177.5273 176.8289,177.7852 Q177.1453,178.043 177.7078,178.043 Q178.0418,178.043 178.2762,177.9668 Q178.4109,177.9258 178.5633,177.791 Q178.6629,177.7148 178.7156,177.6914 Q178.7684,177.668 178.8328,177.668 Q178.9559,177.668 179.0467,177.7646 Q179.1375,177.8613 179.1375,177.9961 Q179.1375,178.125 179.0086,178.2773 Q178.8211,178.5 178.5223,178.623 Q178.1297,178.793 177.6492,178.793 Q177.0867,178.793 176.6355,178.5703 Q176.2723,178.3945 176.0174,178.0137 Q175.7625,177.6328 175.7625,177.1816 L175.7625,176.7715 Q175.7625,176.3027 175.9881,175.8926 Q176.2137,175.4824 176.6092,175.2627 Q177.0047,175.043 177.45,175.043 Q177.7195,175.043 177.9539,175.1367 Q178.1883,175.2305 178.3875,175.418 Z "/><text fill="#000000" font-family="sans-serif" font-size="4.5" lengthAdjust="spacingAndGlyphs" textLength="23.25" x="183.1125" y="178.5718">MapLoader</text><line style="stroke: #A80036; stroke-width: 0.5625;" x1="171.375" x2="208.125" y1="182.7305" y2="182.7305"/><rect fill="none" height="2.25" style="stroke: #C82930; stroke-width: 0.375;" width="2.25" x="174" y="186.2622"/><text fill="#000000" font-family="sans-serif" font-size="4.125" lengthAdjust="spacingAndGlyphs" textLength="27.75" x="178.5" y="188.5126">maps : Room[][]</text><line style="stroke: #A80036; stroke-width: 0.5625;" x1="171.375" x2="208.125" y1="190.9189" y2="190.9189"/><ellipse cx="175.125" cy="195.5757" fill="#84BE84" rx="1.125" ry="1.125" style="stroke: #038048; stroke-width: 0.375;"/><text fill="#000000" font-family="sans-serif" font-size="4.125" lengthAdjust="spacingAndGlyphs" textLength="8.625" x="178.5" y="196.701">get()</text><ellipse cx="175.125" cy="200.7642" fill="#84BE84" rx="1.125" ry="1.125" style="stroke: #038048; stroke-width: 0.375;"/><text fill="#000000" font-family="sans-serif" font-size="4.125" lengthAdjust="spacingAndGlyphs" textLength="13.125" x="178.5" y="201.8895">getAll()</text><ellipse cx="175.125" cy="205.9526" fill="#84BE84" rx="1.125" ry="1.125" style="stroke: #038048; stroke-width: 0.375;"/><text fill="#000000" font-family="sans-serif" font-size="4.125" lengthAdjust="spacingAndGlyphs" textLength="13.125" x="178.5" y="207.078">getAll()</text><polygon fill="#4177AF" points="175.125,209.6411,173.625,211.8911,176.625,211.8911" style="stroke: #1963A0; stroke-width: 0.375;"/><text fill="#000000" font-family="sans-serif" font-size="4.125" lengthAdjust="spacingAndGlyphs" textLength="23.25" x="178.5" y="212.2665">MapLoader()</text><!--class it.polimi.ingsw.server.persistency.PowerupLoader--><rect fill="#FEFECE" filter="url(#f16kv5bhpw5o7k)" height="43.9424" id="it.polimi.ingsw.server.persistency.PowerupLoader" style="stroke: #A80036; stroke-width: 0.5625;" width="67.875" x="221.8125" y="170.7305"/><ellipse cx="237.7313" cy="176.7305" fill="#ADD1B2" rx="4.125" ry="4.125" style="stroke: #A80036; stroke-width: 0.375;"/><path d="M238.4813,175.418 Q238.5574,175.2305 238.6453,175.1367 Q238.7332,175.043 238.8328,175.043 Q239.0086,175.043 239.1199,175.1484 Q239.2313,175.2539 239.2313,175.5 L239.2313,176.0859 Q239.2313,176.332 239.1258,176.4375 Q239.0203,176.543 238.8563,176.543 Q238.7098,176.543 238.616,176.4785 Q238.5223,176.4141 238.4813,176.2441 Q238.4637,176.127 238.3992,176.0625 Q238.282,175.9395 238.0711,175.8662 Q237.8602,175.793 237.6492,175.793 Q237.3855,175.793 237.1658,175.8984 Q236.9461,176.0039 236.7762,176.2383 Q236.6063,176.4727 236.6063,176.7949 L236.6063,177.1406 Q236.6063,177.5273 236.9227,177.7852 Q237.2391,178.043 237.8016,178.043 Q238.1355,178.043 238.3699,177.9668 Q238.5047,177.9258 238.657,177.791 Q238.7566,177.7148 238.8094,177.6914 Q238.8621,177.668 238.9266,177.668 Q239.0496,177.668 239.1404,177.7646 Q239.2313,177.8613 239.2313,177.9961 Q239.2313,178.125 239.1023,178.2773 Q238.9148,178.5 238.616,178.623 Q238.2234,178.793 237.743,178.793 Q237.1805,178.793 236.7293,178.5703 Q236.366,178.3945 236.1111,178.0137 Q235.8563,177.6328 235.8563,177.1816 L235.8563,176.7715 Q235.8563,176.3027 236.0818,175.8926 Q236.3074,175.4824 236.7029,175.2627 Q237.0984,175.043 237.5438,175.043 Q237.8133,175.043 238.0477,175.1367 Q238.282,175.2305 238.4813,175.418 Z "/><text fill="#000000" font-family="sans-serif" font-size="4.5" lengthAdjust="spacingAndGlyphs" textLength="33" x="245.2687" y="178.5718">PowerupLoader</text><line style="stroke: #A80036; stroke-width: 0.5625;" x1="222.1875" x2="289.3125" y1="182.7305" y2="182.7305"/><rect fill="none" height="2.25" style="stroke: #C82930; stroke-width: 0.375;" width="2.25" x="224.8125" y="186.2622"/><text fill="#000000" font-family="sans-serif" font-size="4.125" lengthAdjust="spacingAndGlyphs" textLength="58.125" x="229.3125" y="188.5126">powerupCards : PowerupCard[]</text><line style="stroke: #A80036; stroke-width: 0.5625;" x1="222.1875" x2="289.3125" y1="190.9189" y2="190.9189"/><ellipse cx="225.9375" cy="195.5757" fill="#84BE84" rx="1.125" ry="1.125" style="stroke: #038048; stroke-width: 0.375;"/><text fill="#000000" font-family="sans-serif" font-size="4.125" lengthAdjust="spacingAndGlyphs" textLength="8.625" x="229.3125" y="196.701">get()</text><ellipse cx="225.9375" cy="200.7642" fill="#84BE84" rx="1.125" ry="1.125" style="stroke: #038048; stroke-width: 0.375;"/><text fill="#000000" font-family="sans-serif" font-size="4.125" lengthAdjust="spacingAndGlyphs" textLength="13.125" x="229.3125" y="201.8895">getAll()</text><ellipse cx="225.9375" cy="205.9526" fill="#84BE84" rx="1.125" ry="1.125" style="stroke: #038048; stroke-width: 0.375;"/><text fill="#000000" font-family="sans-serif" font-size="4.125" lengthAdjust="spacingAndGlyphs" textLength="13.125" x="229.3125" y="207.078">getAll()</text><polygon fill="#4177AF" points="225.9375,209.6411,224.4375,211.8911,227.4375,211.8911" style="stroke: #1963A0; stroke-width: 0.375;"/><text fill="#000000" font-family="sans-serif" font-size="4.125" lengthAdjust="spacingAndGlyphs" textLength="32.25" x="229.3125" y="212.2665">PowerupLoader()</text><!--class it.polimi.ingsw.server.persistency.WeaponLoader--><rect fill="#FEFECE" filter="url(#f16kv5bhpw5o7k)" height="43.9424" id="it.polimi.ingsw.server.persistency.WeaponLoader" style="stroke: #A80036; stroke-width: 0.5625;" width="64.875" x="302.8125" y="170.7305"/><ellipse cx="317.8875" cy="176.7305" fill="#ADD1B2" rx="4.125" ry="4.125" style="stroke: #A80036; stroke-width: 0.375;"/><path d="M318.6375,175.418 Q318.7137,175.2305 318.8016,175.1367 Q318.8895,175.043 318.9891,175.043 Q319.1648,175.043 319.2762,175.1484 Q319.3875,175.2539 319.3875,175.5 L319.3875,176.0859 Q319.3875,176.332 319.282,176.4375 Q319.1766,176.543 319.0125,176.543 Q318.866,176.543 318.7723,176.4785 Q318.6785,176.4141 318.6375,176.2441 Q318.6199,176.127 318.5555,176.0625 Q318.4383,175.9395 318.2273,175.8662 Q318.0164,175.793 317.8055,175.793 Q317.5418,175.793 317.3221,175.8984 Q317.1023,176.0039 316.9324,176.2383 Q316.7625,176.4727 316.7625,176.7949 L316.7625,177.1406 Q316.7625,177.5273 317.0789,177.7852 Q317.3953,178.043 317.9578,178.043 Q318.2918,178.043 318.5262,177.9668 Q318.6609,177.9258 318.8133,177.791 Q318.9129,177.7148 318.9656,177.6914 Q319.0184,177.668 319.0828,177.668 Q319.2059,177.668 319.2967,177.7646 Q319.3875,177.8613 319.3875,177.9961 Q319.3875,178.125 319.2586,178.2773 Q319.0711,178.5 318.7723,178.623 Q318.3797,178.793 317.8992,178.793 Q317.3367,178.793 316.8855,178.5703 Q316.5223,178.3945 316.2674,178.0137 Q316.0125,177.6328 316.0125,177.1816 L316.0125,176.7715 Q316.0125,176.3027 316.2381,175.8926 Q316.4637,175.4824 316.8592,175.2627 Q317.2547,175.043 317.7,175.043 Q317.9695,175.043 318.2039,175.1367 Q318.4383,175.2305 318.6375,175.418 Z "/><text fill="#000000" font-family="sans-serif" font-size="4.5" lengthAdjust="spacingAndGlyphs" textLength="31.875" x="325.2375" y="178.5718">WeaponLoader</text><line style="stroke: #A80036; stroke-width: 0.5625;" x1="303.1875" x2="367.3125" y1="182.7305" y2="182.7305"/><rect fill="none" height="2.25" style="stroke: #C82930; stroke-width: 0.375;" width="2.25" x="305.8125" y="186.2622"/><text fill="#000000" font-family="sans-serif" font-size="4.125" lengthAdjust="spacingAndGlyphs" textLength="55.125" x="310.3125" y="188.5126">weaponCards : WeaponCard[]</text><line style="stroke: #A80036; stroke-width: 0.5625;" x1="303.1875" x2="367.3125" y1="190.9189" y2="190.9189"/><ellipse cx="306.9375" cy="195.5757" fill="#84BE84" rx="1.125" ry="1.125" style="stroke: #038048; stroke-width: 0.375;"/><text fill="#000000" font-family="sans-serif" font-size="4.125" lengthAdjust="spacingAndGlyphs" textLength="8.625" x="310.3125" y="196.701">get()</text><ellipse cx="306.9375" cy="200.7642" fill="#84BE84" rx="1.125" ry="1.125" style="stroke: #038048; stroke-width: 0.375;"/><text fill="#000000" font-family="sans-serif" font-size="4.125" lengthAdjust="spacingAndGlyphs" textLength="13.125" x="310.3125" y="201.8895">getAll()</text><ellipse cx="306.9375" cy="205.9526" fill="#84BE84" rx="1.125" ry="1.125" style="stroke: #038048; stroke-width: 0.375;"/><text fill="#000000" font-family="sans-serif" font-size="4.125" lengthAdjust="spacingAndGlyphs" textLength="13.125" x="310.3125" y="207.078">getAll()</text><polygon fill="#4177AF" points="306.9375,209.6411,305.4375,211.8911,308.4375,211.8911" style="stroke: #1963A0; stroke-width: 0.375;"/><text fill="#000000" font-family="sans-serif" font-size="4.125" lengthAdjust="spacingAndGlyphs" textLength="30.75" x="310.3125" y="212.2665">WeaponLoader()</text><!--class it.polimi.ingsw.server.persistency.WrongFileInputException--><rect fill="#FEFECE" filter="url(#f16kv5bhpw5o7k)" height="28.377" id="it.polimi.ingsw.server.persistency.WrongFileInputException" style="stroke: #A80036; stroke-width: 0.5625;" width="63" x="14.25" y="78.293"/><ellipse cx="19.875" cy="84.293" fill="#ADD1B2" rx="4.125" ry="4.125" style="stroke: #A80036; stroke-width: 0.375;"/><path d="M20.625,82.9805 Q20.7012,82.793 20.7891,82.6992 Q20.877,82.6055 20.9766,82.6055 Q21.1523,82.6055 21.2637,82.7109 Q21.375,82.8164 21.375,83.0625 L21.375,83.6484 Q21.375,83.8945 21.2695,84 Q21.1641,84.1055 21,84.1055 Q20.8535,84.1055 20.7598,84.041 Q20.666,83.9766 20.625,83.8066 Q20.6074,83.6895 20.543,83.625 Q20.4258,83.502 20.2148,83.4287 Q20.0039,83.3555 19.793,83.3555 Q19.5293,83.3555 19.3096,83.4609 Q19.0898,83.5664 18.9199,83.8008 Q18.75,84.0352 18.75,84.3574 L18.75,84.7031 Q18.75,85.0898 19.0664,85.3477 Q19.3828,85.6055 19.9453,85.6055 Q20.2793,85.6055 20.5137,85.5293 Q20.6484,85.4883 20.8008,85.3535 Q20.9004,85.2773 20.9531,85.2539 Q21.0059,85.2305 21.0703,85.2305 Q21.1934,85.2305 21.2842,85.3271 Q21.375,85.4238 21.375,85.5586 Q21.375,85.6875 21.2461,85.8398 Q21.0586,86.0625 20.7598,86.1855 Q20.3672,86.3555 19.8867,86.3555 Q19.3242,86.3555 18.873,86.1328 Q18.5098,85.957 18.2549,85.5762 Q18,85.1953 18,84.7441 L18,84.334 Q18,83.8652 18.2256,83.4551 Q18.4512,83.0449 18.8467,82.8252 Q19.2422,82.6055 19.6875,82.6055 Q19.957,82.6055 20.1914,82.6992 Q20.4258,82.793 20.625,82.9805 Z "/><text fill="#000000" font-family="sans-serif" font-size="4.5" lengthAdjust="spacingAndGlyphs" textLength="51" x="25.125" y="86.1343">WrongFileInputException</text><line style="stroke: #A80036; stroke-width: 0.5625;" x1="14.625" x2="76.875" y1="90.293" y2="90.293"/><line style="stroke: #A80036; stroke-width: 0.5625;" x1="14.625" x2="76.875" y1="93.293" y2="93.293"/><polygon fill="#4177AF" points="18.375,96.4497,16.875,98.6997,19.875,98.6997" style="stroke: #1963A0; stroke-width: 0.375;"/><text fill="#000000" font-family="sans-serif" font-size="4.125" lengthAdjust="spacingAndGlyphs" textLength="47.25" x="21.75" y="99.0751">WrongFileInputException()</text><polygon fill="#4177AF" points="18.375,101.6382,16.875,103.8882,19.875,103.8882" style="stroke: #1963A0; stroke-width: 0.375;"/><text fill="#000000" font-family="sans-serif" font-size="4.125" lengthAdjust="spacingAndGlyphs" textLength="47.25" x="21.75" y="104.2635">WrongFileInputException()</text><!--link it.polimi.ingsw.server.persistency.BasicLoader to it.polimi.ingsw.server.persistency.AmmoCardLoader--><path d="M193.8413,116.714 C189.9203,127.0058 183.8558,138.3342 174.75,145.6055 C140.1251,173.2546 118.1378,150.1587 77.625,168.1055 C75.4354,169.0752 73.2398,170.189 71.0749,171.3938 " fill="none" id="it.polimi.ingsw.server.persistency.BasicLoader-it.polimi.ingsw.server.persistency.AmmoCardLoader" style="stroke: #A80036; stroke-width: 0.375; stroke-dasharray: 7.0,7.0;"/><polygon fill="none" points="191.409,115.7146,196.3301,109.4757,196.3736,117.422,191.409,115.7146" style="stroke: #A80036; stroke-width: 0.375;"/><!--link it.polimi.ingsw.server.persistency.BasicLoader to it.polimi.ingsw.server.persistency.EffectLoader--><path d="M191.3093,116.4387 C187.0744,125.9918 181.4625,136.8233 174.75,145.6055 C168.6034,153.6473 160.8926,161.3277 153.2501,168.053 " fill="none" id="it.polimi.ingsw.server.persistency.BasicLoader-it.polimi.ingsw.server.persistency.EffectLoader" style="stroke: #A80036; stroke-width: 0.375; stroke-dasharray: 7.0,7.0;"/><polygon fill="none" points="188.9325,115.3193,194.2744,109.4371,193.7666,117.3672,188.9325,115.3193" style="stroke: #A80036; stroke-width: 0.375;"/><!--link it.polimi.ingsw.server.persistency.BasicLoader to it.polimi.ingsw.server.persistency.MapLoader--><path d="M197.715,116.9097 C195.9833,133.2987 193.7081,154.8331 192.0326,170.6881 " fill="none" id="it.polimi.ingsw.server.persistency.BasicLoader-it.polimi.ingsw.server.persistency.MapLoader" style="stroke: #A80036; stroke-width: 0.375; stroke-dasharray: 7.0,7.0;"/><polygon fill="none" points="195.1058,116.6221,198.5044,109.4393,200.3269,117.1737,195.1058,116.6221" style="stroke: #A80036; stroke-width: 0.375;"/><!--link it.polimi.ingsw.server.persistency.BasicLoader to it.polimi.ingsw.server.persistency.PowerupLoader--><path d="M213.1538,116.0228 C222.3649,132.5153 234.6683,154.5455 243.6836,170.6881 " fill="none" id="it.polimi.ingsw.server.persistency.BasicLoader-it.polimi.ingsw.server.persistency.PowerupLoader" style="stroke: #A80036; stroke-width: 0.375; stroke-dasharray: 7.0,7.0;"/><polygon fill="none" points="210.8422,117.2671,209.4769,109.4393,215.4259,114.7073,210.8422,117.2671" style="stroke: #A80036; stroke-width: 0.375;"/><!--link it.polimi.ingsw.server.persistency.BasicLoader to it.polimi.ingsw.server.persistency.WeaponLoader--><path d="M225.435,111.4568 C248.241,128.2445 281.8474,152.9825 305.8699,170.666 " fill="none" id="it.polimi.ingsw.server.persistency.BasicLoader-it.polimi.ingsw.server.persistency.WeaponLoader" style="stroke: #A80036; stroke-width: 0.375; stroke-dasharray: 7.0,7.0;"/><polygon fill="none" points="223.7899,113.5055,219.306,106.9452,226.902,109.2773,223.7899,113.5055" style="stroke: #A80036; stroke-width: 0.375;"/><text fill="#888888" font-family="sans-serif" font-size="3.75" lengthAdjust="spacingAndGlyphs" textLength="0" x="386.625" y="236.8733"/><text fill="#888888" font-family="sans-serif" font-size="3.75" lengthAdjust="spacingAndGlyphs" textLength="0" x="386.625" y="241.5901"/><text fill="#888888" font-family="sans-serif" font-size="3.75" lengthAdjust="spacingAndGlyphs" textLength="147" x="239.625" y="246.3069">PlantUML diagram generated by SketchIt! (https://bitbucket.org/pmesmeur/sketch.it)</text><text fill="#888888" font-family="sans-serif" font-size="3.75" lengthAdjust="spacingAndGlyphs" textLength="147.75" x="238.875" y="251.0237">For more information about this tool, please contact philippe.mesmeur@gmail.com</text><!--
@startuml

title __SERVER PERSISTENCY's Class Diagram__\n

  namespace it.polimi.ingsw.server.persistency {
    class it.polimi.ingsw.server.persistency.AmmoCardLoader {
        - ammoCards : AmmoCard[]
        + get()
        + getAll()
        + getAll()
        ~ AmmoCardLoader()
    }
  }


  namespace it.polimi.ingsw.server.persistency {
    interface it.polimi.ingsw.server.persistency.BasicLoader {
        {abstract} + get()
        {abstract} + getAll()
        {abstract} + getAll()
    }
  }


  namespace it.polimi.ingsw.server.persistency {
    class it.polimi.ingsw.server.persistency.EffectLoader {
        - cardEffects : CardEffect[]
        - otherEffects : List<EffectInterface>
        + get()
        + getAll()
        + getAll()
        ~ EffectLoader()
    }
  }


  namespace it.polimi.ingsw.server.persistency {
    class it.polimi.ingsw.server.persistency.FromFile {
        {static} - AMMO_CARDS : String
        {static} - EFFECTS : String
        {static} - MAPS : String
        {static} - POWERUP_CARDS : String
        {static} - WEAPON_CARDS : String
        {static} - ammoCardLoader : AmmoCardLoader
        {static} - effectLoader : EffectLoader
        {static} - mapLoader : MapLoader
        {static} - powerupLoader : PowerupLoader
        {static} - weaponLoader : WeaponLoader
        {static} + ammoCards()
        {static} + effects()
        {static} + maps()
        {static} + powerups()
        {static} + weapons()
        - FromFile()
        {static} - setup()
    }
  }


  namespace it.polimi.ingsw.server.persistency {
    class it.polimi.ingsw.server.persistency.MapLoader {
        - maps : Room[][]
        + get()
        + getAll()
        + getAll()
        ~ MapLoader()
    }
  }


  namespace it.polimi.ingsw.server.persistency {
    class it.polimi.ingsw.server.persistency.PowerupLoader {
        - powerupCards : PowerupCard[]
        + get()
        + getAll()
        + getAll()
        ~ PowerupLoader()
    }
  }


  namespace it.polimi.ingsw.server.persistency {
    class it.polimi.ingsw.server.persistency.WeaponLoader {
        - weaponCards : WeaponCard[]
        + get()
        + getAll()
        + getAll()
        ~ WeaponLoader()
    }
  }


  namespace it.polimi.ingsw.server.persistency {
    class it.polimi.ingsw.server.persistency.WrongFileInputException {
        ~ WrongFileInputException()
        ~ WrongFileInputException()
    }
  }


  it.polimi.ingsw.server.persistency.AmmoCardLoader .up.|> it.polimi.ingsw.server.persistency.BasicLoader
  it.polimi.ingsw.server.persistency.EffectLoader .up.|> it.polimi.ingsw.server.persistency.BasicLoader
  it.polimi.ingsw.server.persistency.MapLoader .up.|> it.polimi.ingsw.server.persistency.BasicLoader
  it.polimi.ingsw.server.persistency.PowerupLoader .up.|> it.polimi.ingsw.server.persistency.BasicLoader
  it.polimi.ingsw.server.persistency.WeaponLoader .up.|> it.polimi.ingsw.server.persistency.BasicLoader


right footer


PlantUML diagram generated by SketchIt! (https://bitbucket.org/pmesmeur/sketch.it)
For more information about this tool, please contact philippe.mesmeur@gmail.com
endfooter

@enduml

PlantUML version 1.2019.05(Sat Apr 20 18:45:36 CEST 2019)
(GPL source distribution)
Java Runtime: OpenJDK Runtime Environment
JVM: OpenJDK 64-Bit Server VM
Java Version: 1.8.0_202-release-1483-b58
Operating System: Windows 10
OS Version: 10.0
Default Encoding: Cp1252
Language: it
Country: IT
--></g></svg>